<svg id="Layer_1" data-name="Layer 1" xmlns="http://www.w3.org/2000/svg" viewBox="0 0 297.3 184.33"><defs><style>.cls-1{fill:#e17c26;}.cls-2{fill:#f9d14c;}.cls-3{fill:#e9a422;}.cls-4{fill:#ac5025;}.cls-5{fill:#e09026;}.cls-6{fill:#e8a623;}.cls-7{fill:#f9b48d;}.cls-8{fill:#c35e4f;}.cls-9{fill:#ee9475;}.cls-10{fill:#d9cf99;}.cls-11{fill:#f0f0d2;}.cls-12{fill:#fff;}.cls-13{fill:#1c1f31;}.cls-14{fill:#2b334d;}.cls-15{fill:#474e7e;}.cls-16{fill:#525791;}.cls-17{fill:#f8dab6;}.cls-18{fill:#165c6e;}.cls-19{fill:#1f8199;}.cls-20{fill:#26b7db;}.cls-21{fill:#86702c;}.cls-22{fill:#c0a22f;}.cls-23{fill:#e0bb27;}.cls-24{fill:#eace64;}.cls-25{fill:#a38830;}.cls-26{fill:#de846d;}.cls-27{fill:#be5838;}.cls-28,.cls-29{fill:#bc1e50;}.cls-29{stroke:#231f20;stroke-miterlimit:10;stroke-width:0.3px;}</style></defs><title>kidinet_logo</title><path class="cls-1" d="M231,459.6l-1,.12a5.71,5.71,0,0,1-.68,2,0.56,0.56,0,0,0-.3.84,1,1,0,0,0,1.31-.23c2.46-.71,4.1.15,4.89,2.67a5.19,5.19,0,0,1,.25,1.44,0.81,0.81,0,0,0,1.14.53,3.81,3.81,0,0,1,1,.15c-0.32.11-.65,0.15-1,0.26l2.64-.33a6.73,6.73,0,0,0-2.85-.85,13.09,13.09,0,0,0-.26-1.57,5.76,5.76,0,0,0-1.82-2.78,3.93,3.93,0,0,0-2.25-.86,5.74,5.74,0,0,0-1.06.07,0.24,0.24,0,0,0-.19.09A9.49,9.49,0,0,1,231,460a0.86,0.86,0,0,1,0-.4h0Z" transform="translate(-162.18 -446.9)"/><path class="cls-1" d="M215.36,461.57l-0.66.08a3.82,3.82,0,0,0,.12,3.6,2.46,2.46,0,0,0-.44,1.33,1.38,1.38,0,0,0,.24.84c0.08,0.12.23,0.24,0.39,0.42a5.74,5.74,0,0,0,1.89.1H217a7.46,7.46,0,0,0,1.56-.4,6.3,6.3,0,0,0,1.31-.77,1.11,1.11,0,0,1,.37-0.25l0.9-.31a8.37,8.37,0,0,1,2.9.17c1.53,0.48,3.07,1,4.61,1.56a3.54,3.54,0,0,0,.91.35l2.24-.28a12.88,12.88,0,0,1-4.38-1.26,10.11,10.11,0,0,0-6.81-1,0.4,0.4,0,0,0-.25.1,2,2,0,0,0-1.6.6,10.09,10.09,0,0,1-1.52.66h-0.07a5.06,5.06,0,0,1-1.73.08,1.64,1.64,0,0,1-.13-0.52,2.21,2.21,0,0,1,.68-2.09,5.75,5.75,0,0,1,.51-0.73,1.44,1.44,0,0,1,.63-0.35,19.73,19.73,0,0,0,1.74-1.56,11.44,11.44,0,0,0,.88-1l-1.25.16a2.9,2.9,0,0,1-.41.45c-0.42.39-.76,0.83-1.12,1.21l-0.2,0c-0.35.38-.71,0.69-1,1a12,12,0,0,0-.67,1l-0.08-.12a5.12,5.12,0,0,1,.4-3.2h0Z" transform="translate(-162.18 -446.9)"/><path class="cls-1" d="M206.27,462.71l-0.85.11a7.84,7.84,0,0,0,.77.84,8.31,8.31,0,0,0,1.46,1,0.51,0.51,0,0,0,.44.28,7.21,7.21,0,0,1,1.11.33,1.52,1.52,0,0,1,1.32.91,1.83,1.83,0,0,1-.23.83l-0.06.07c-1.22,1-2.51,1.92-3.8,2.82-0.67.55-.62,0.95,0,1.33l1.32-.17a2.7,2.7,0,0,1-.64-0.25,0.74,0.74,0,0,1-.36-0.22,5.15,5.15,0,0,1,1.71-1.35,7.73,7.73,0,0,0,1.66-1.15c0.07,0.06.16,0.18,0.23,0.24a5.86,5.86,0,0,0,3.15,1.14c0.81,0,1.61,0,2.47,0a6.13,6.13,0,0,1,1.93-.11c0.6,0,1.61,0,2.88,0a2.51,2.51,0,0,0,.67,0l0.13,0,0.4,0,2.64-.33a16.12,16.12,0,0,0-3.48-.5h-1.61a0.75,0.75,0,0,0-.52.13,0.24,0.24,0,0,0-.19.09c-1.74,0-3.48,0-5.27.13a5.49,5.49,0,0,1-2.79-.92l-0.16-.18a1.73,1.73,0,0,0,.35-0.38,1.4,1.4,0,0,0,.16-0.35,1.23,1.23,0,0,0,.17-0.76,1.68,1.68,0,0,0-1-1.34,7.22,7.22,0,0,0-1.06-.4,9.48,9.48,0,0,0-1-1.94l-0.79.1c0.32,0.43.63,0.79,1,1.22a2.76,2.76,0,0,0,.32.43l-0.13,0a5,5,0,0,1-2.27-1.52h0Z" transform="translate(-162.18 -446.9)"/><path class="cls-1" d="M207.78,471l-1.32.17,0.22,0.17a19.75,19.75,0,0,0,2.8,1,4.82,4.82,0,0,1,3.67,3.62,7.79,7.79,0,0,1-.9,3l1.19-.15a0.13,0.13,0,0,1,.12-0.08,5.63,5.63,0,0,0-.82-5.45,7.34,7.34,0,0,0-3.09-1.69,10.48,10.48,0,0,1-1.88-.57h0Z" transform="translate(-162.18 -446.9)"/><path class="cls-1" d="M237.91,467.84a1.87,1.87,0,0,1,1.2,0l0.08,0.12a6.68,6.68,0,0,1,1.82,1.71v0.07a5.46,5.46,0,0,0-1.43-.22,17.55,17.55,0,0,0-1.9.37c-1.38.24-2.81,0.55-4.18,0.79a12,12,0,0,1-3.11-.28c-0.91-.29-1.88-0.57-2.78-0.79s-1.66-.39-2.55-0.55l-0.42-.15-2.64.33a11.15,11.15,0,0,1,5,2,7.64,7.64,0,0,0,1.24.78,2.55,2.55,0,0,0,.44.28,6.66,6.66,0,0,0,1.21.58H230a11.59,11.59,0,0,0,3.8.93,36.44,36.44,0,0,1,3.81-.08l1.08,0.07a4.18,4.18,0,0,1,2.93,1.44l0.86-.11a4.14,4.14,0,0,0-3.68-2.15,13,13,0,0,0-2.35,0,0.41,0.41,0,0,0-.28,0,11.81,11.81,0,0,1-4.1-.15,23.09,23.09,0,0,1-4.9-2.26,3.79,3.79,0,0,0-.65-0.39,3.1,3.1,0,0,1,.7.25c0.21,0,.49.14,0.83,0.23,0.83,0.23,1.66.46,2.56,0.68a13.91,13.91,0,0,0,7.34-.72,4.76,4.76,0,0,1,3.36.11,6.21,6.21,0,0,1,1.85,2.45c0,0.21-.08.48-0.11,0.68-0.14.49-.22,0.9-0.3,1.31l0.79-.1a8.2,8.2,0,0,0,.18-1.23,0.32,0.32,0,0,0,.14-0.49c-0.13-.52-0.26-1-0.38-1.43a3.75,3.75,0,0,0-1.56-1.75c-0.19-.44-0.36-0.76-0.45-0.95a6.82,6.82,0,0,0-2.14-2.14l-2.64.33c-0.65.15-1.29,0.36-2,.59a13.36,13.36,0,0,1-1.66.14c-0.41,0-.82-0.1-1.22-0.11l-2.24.28a1,1,0,0,0,.28.1,9.34,9.34,0,0,0,6,0c0.19-.09.45-0.12,0.71-0.22a5.07,5.07,0,0,1,1.36-.37h0Z" transform="translate(-162.18 -446.9)"/><path class="cls-1" d="M219,448.25c-0.06.07-.12,0.08-0.18,0.16a8,8,0,0,0-2.86,1.76,35.86,35.86,0,0,0-3.15,3.21l1.25-.16c0.41-.45.83-0.84,1.25-1.23a11.37,11.37,0,0,1,3.23-2.55,8.67,8.67,0,0,1,7.57-.48,3.57,3.57,0,0,1,.65.39,11.18,11.18,0,0,1,1,1.42c0.1,0.26.2,0.51,0.29,0.7l1.45-.18a6.4,6.4,0,0,0-1.84-2.38,7.08,7.08,0,0,0-1.67-1.06,4.16,4.16,0,0,0-3.1-.68c-0.25.1-.51,0.2-0.7,0.29a7.29,7.29,0,0,0-2.66.67,1.45,1.45,0,0,0-.52.13h0Z" transform="translate(-162.18 -446.9)"/><path class="cls-1" d="M194.51,447.45a0.24,0.24,0,0,0-.19.09,7.23,7.23,0,0,0-2.38,1.84,6.48,6.48,0,0,0-2.06,3.34,5.38,5.38,0,0,0,.21,2.72l0.3,0.77,0.66-.08a4.42,4.42,0,0,1,.55-5.22,6.81,6.81,0,0,1,5.71-3.06,12.63,12.63,0,0,1,9.5,6.31l0.72-.09a8.19,8.19,0,0,0-1-1.61,17.34,17.34,0,0,0-4-3.91,12.26,12.26,0,0,0-3-1.37,8.14,8.14,0,0,0-1.76-.18,5.45,5.45,0,0,0-3.22.47h0Z" transform="translate(-162.18 -446.9)"/><path class="cls-1" d="M193.53,451.39a11.45,11.45,0,0,1,4-1.58,6.14,6.14,0,0,1,4.32.86,17.17,17.17,0,0,1,3.67,3.62l1-.12a10.76,10.76,0,0,0-6-5,8.29,8.29,0,0,0-5.34.67,0.4,0.4,0,0,0-.26.1,4,4,0,0,0-3,3.45,17.85,17.85,0,0,0,.78,2.51l0.46-.06a3.36,3.36,0,0,1,.38-4.47h0Z" transform="translate(-162.18 -446.9)"/><path class="cls-1" d="M206.53,454.17l-1,.12a17.72,17.72,0,0,1,1.93,3.64c0.28,0.63.49,1.28,0.78,1.91,0.08,0.12.1,0.26,0.18,0.38l0.47,2.15,1-.12,0-.13,0-.33a13.28,13.28,0,0,1-.14-1.66l0-.13v-0.07c0-.21,0-0.34.06-0.54a6.13,6.13,0,0,1,.52-1.2,27.26,27.26,0,0,1,3.56-4.67,1.48,1.48,0,0,1,.3-0.3l-1.25.16a5.35,5.35,0,0,0-.75,1,28.78,28.78,0,0,0-1.64,2.41,11,11,0,0,0-1.08,2.08L209,457.28a3.17,3.17,0,0,0-.52-0.94,0.72,0.72,0,0,1-.11-0.32,10.59,10.59,0,0,0-.85-2l-0.72.09a5.82,5.82,0,0,0,.42.68c0.45,0.95.83,1.84,1.29,2.78l0,0.13a1.19,1.19,0,0,1,.11.39c0.19,1,.37,1.89.55,2.81a3.41,3.41,0,0,1-.23-0.77l-0.16-1.25a20.91,20.91,0,0,0-1.16-2.8c-0.27-.57-0.61-1.13-0.95-1.69-0.07-.06-0.09-0.19-0.17-0.25h0Z" transform="translate(-162.18 -446.9)"/><path class="cls-1" d="M202.41,457a4.43,4.43,0,0,1,2.55,1.15,4.08,4.08,0,0,1,.95,1.15,0.66,0.66,0,0,0,.41.62,1.29,1.29,0,0,0-.21-1.65,1,1,0,0,0-.16-0.25,6.64,6.64,0,0,0-7-1.53,1.77,1.77,0,0,0-.31.17,2.84,2.84,0,0,0-1.06,1.14,3.27,3.27,0,0,0-.16,1.36,0.4,0.4,0,0,0,.1.26,10.91,10.91,0,0,0-5.25,1.86,3.27,3.27,0,0,1,0-.8,2.92,2.92,0,0,1,1.94-1.58,0.63,0.63,0,0,0,.08-0.95c-0.27-.57-0.48-1.14-0.74-1.65a2,2,0,0,1-.33-0.49l-0.46.06c0.27,0.57.55,1.2,0.83,1.77,0.11,0.32.27,0.57,0.38,0.89a2.51,2.51,0,0,0-2,2.73l0.16,0.18-0.19.09a6.13,6.13,0,0,0-2.73,3.29l0.79-.1a8.14,8.14,0,0,1,2.3-2.5,10.29,10.29,0,0,1,4.31-1.95,0.84,0.84,0,0,0-.39.12,5.64,5.64,0,0,0-2.4,2.24,3.5,3.5,0,0,0,0,1.61l0.33,0a2.64,2.64,0,0,1,1-2.6,11.08,11.08,0,0,1,1.67-1.08,2.85,2.85,0,0,1,.43-0.32,3.11,3.11,0,0,1,1.15.06,0.52,0.52,0,0,0,.63-0.35,3.74,3.74,0,0,1-.78-0.84c0.42-2,1.8-2.7,4.23-2.07h0Z" transform="translate(-162.18 -446.9)"/><path class="cls-1" d="M191,456.12l-0.66.08a5.76,5.76,0,0,0,.45.95c-0.39.12-.77,0.3-1.09,0.4q-3.62,1.56-2.57,5.14l-0.19.09a3.05,3.05,0,0,0-1.54,2.13,0.85,0.85,0,0,0,0,.4l0.66-.08a3.13,3.13,0,0,1,1.29-2,1.06,1.06,0,0,0,.77.84c0.26-.1.37-0.25,0.28-0.44A4.15,4.15,0,0,1,188,463a0.3,0.3,0,0,0,0-.33l-0.14,0,0-.2a3.12,3.12,0,0,1,1.51-4,10.9,10.9,0,0,1,2.06-.66c0.64-.28.65-0.68,0.06-1.15-0.09-.19-0.24-0.3-0.33-0.49h0Z" transform="translate(-162.18 -446.9)"/><path class="cls-1" d="M230,452.84a9.81,9.81,0,0,0-.46-1.55l-1.45.18a5.28,5.28,0,0,1-.81,5.26c-0.65.68-1.37,1.38-2,2a16.24,16.24,0,0,0-1.91,1.85l0.59-.07c0.3-.24.6-0.54,0.9-0.78q0.81-.8,1.8-1.63a6.23,6.23,0,0,0,2.31-3.44,5.44,5.44,0,0,0,0-1.75,1.19,1.19,0,0,0,.11.39,1.88,1.88,0,0,1,0,.6h-0.07a1.81,1.81,0,0,1,0,.6,12,12,0,0,1-.51,1.8l0,0.13a18.11,18.11,0,0,1-2.77,3.56,2.92,2.92,0,0,0-.43.32l1.12-.14c0.58-.67,1.17-1.35,1.69-2a0.66,0.66,0,0,1,.22-0.36l0,0.2,0.46-.59a1.53,1.53,0,0,1,.32-0.64,0.91,0.91,0,0,1,.23.24,5.14,5.14,0,0,1,.61,2.73l1-.12a6.33,6.33,0,0,0-1.34-3.78,4.78,4.78,0,0,0,.29-3h0Z" transform="translate(-162.18 -446.9)"/><path class="cls-1" d="M205.41,462.82l0.85-.11a3.78,3.78,0,0,1-.65-1.46,0.13,0.13,0,0,1,.2,0,3.85,3.85,0,0,1,1.49,1.22,0.13,0.13,0,0,0,.08.12l0.79-.1c-0.16-.18-0.31-0.3-0.46-0.48a2.67,2.67,0,0,0-2.44-1.3,0.52,0.52,0,0,0-.31.17,2.56,2.56,0,0,0,.45,2h0Z" transform="translate(-162.18 -446.9)"/><path class="cls-1" d="M209.89,462.25l-1,.12a5,5,0,0,1,.19,1,0.42,0.42,0,0,0,.33.49c0.06-.07.19-0.09,0.25-0.17l0.13-.08a2.66,2.66,0,0,0,.1-1.35h0Z" transform="translate(-162.18 -446.9)"/><path class="cls-1" d="M212.46,461.93l0.59-.07a7.63,7.63,0,0,1,1-2.88,12.55,12.55,0,0,1,5.36-5.83c1.29-.36,1.9.23,1.75,1.65a2.18,2.18,0,0,0-1.09.4,0.41,0.41,0,0,0-.26.1,4.16,4.16,0,0,0-1.23.82,11.47,11.47,0,0,0-2.34,2.7,0.77,0.77,0,0,0-.27.5c-0.17.22-.34,0.51-0.51,0.73s-0.38.72-.54,1a2.42,2.42,0,0,0-.26.57l0.66-.08a8,8,0,0,1,.54-1,13,13,0,0,1,4.23-4.68,2,2,0,0,1,1-.4,10.25,10.25,0,0,1-2.7,5.69l1.25-.16a8.62,8.62,0,0,0,.91-1.25,9.91,9.91,0,0,0,1.13-2.75,4.82,4.82,0,0,0-.36-4.44,2.31,2.31,0,0,0-2.74,0c-0.06.07-.19,0.09-0.25,0.16a4.12,4.12,0,0,0-.75.43,12.29,12.29,0,0,0-3,3.39,9.48,9.48,0,0,0-2.2,5.36h0Z" transform="translate(-162.18 -446.9)"/><path class="cls-1" d="M213.05,461.86l-0.59.07a17.85,17.85,0,0,0,0,1.88,1.32,1.32,0,0,0,.16.72,3.49,3.49,0,0,0,.56,1.27,0.89,0.89,0,0,0,0-.94,6.42,6.42,0,0,1-.11-3h0Z" transform="translate(-162.18 -446.9)"/><path class="cls-1" d="M222.76,461.31c-0.06.07-.12,0.08-0.18,0.16a3.08,3.08,0,0,0-.64,2.89c0,0.2.16,0.25,0.44,0.28a4.57,4.57,0,0,0,2.78-.82h0.06a1,1,0,0,1,.25-0.17c0.3-.3.6-0.54,0.77-0.77a1.45,1.45,0,0,0,.3-0.3,1.72,1.72,0,0,0-1.15.41h-0.07c-0.44.26-.69,0.35-0.85,0.17a3.55,3.55,0,0,1,.86-1.71c0.06-.07.18-0.16,0.24-0.23a5.33,5.33,0,0,1,.89-0.92,0.13,0.13,0,0,1,0-.14l-1.12.14a5.38,5.38,0,0,0-1.62,3.08,0.78,0.78,0,0,0,.32.43,1.8,1.8,0,0,0-.31.17l-0.13,0a1.84,1.84,0,0,1-1.33.1,1.87,1.87,0,0,1,.1-1.35,0.25,0.25,0,0,1,0-.21,7.71,7.71,0,0,1,1.48-2.06l-0.59.07-0.58.74h0Z" transform="translate(-162.18 -446.9)"/><path class="cls-1" d="M186.12,465.37l0-.13-0.66.08a1.45,1.45,0,0,0,0,.54,4.22,4.22,0,0,0-3.12.19,0.24,0.24,0,0,1-.19.09,13,13,0,0,0-4.38,4,8.77,8.77,0,0,0-1.93,4.86l1.05-.13a4.65,4.65,0,0,1,3.09-3.13,19.85,19.85,0,0,1,2-.31l3.72-.27a17.66,17.66,0,0,0,1.89-.37,1.89,1.89,0,0,0-.62,1.48,0.72,0.72,0,0,0,.07.53,4.33,4.33,0,0,0-1,.93l1.52-.19a0.17,0.17,0,0,1,.26,0l2.77-.35a8.86,8.86,0,0,0,1.5-.86c0.82-.44,1.64-0.81,2.32-1.23a11,11,0,0,0,1.1-.81c0.12-.08.26-0.1,0.38-0.18h0.07l0.5-.26a0.24,0.24,0,0,0,.19-0.09l1.15,0.06a6.81,6.81,0,0,0,1.66-.14,4.19,4.19,0,0,0-.56,2.48l0.79-.1a3,3,0,0,1,1.31-2.91,1.19,1.19,0,0,1,.42-0.39,4.86,4.86,0,0,1,1.58-.73l1.82-.43a0.24,0.24,0,0,0,.19-0.09,1.48,1.48,0,0,1-.35-0.16,2.86,2.86,0,0,0-1.87,0c-0.25.1-.52,0.13-0.77,0.23a10.4,10.4,0,0,0-1.33.1,12.53,12.53,0,0,1-1.68-.06,6.8,6.8,0,0,1-4.71-2.89,1.46,1.46,0,0,1-.13-0.52l-0.33,0c0.16,1.79,1.38,3,3.53,3.57,0.21,0,.35.16,0.56,0.2a8.28,8.28,0,0,0,2.58.28,0.5,0.5,0,0,1,.27,0,4,4,0,0,0-.43.32,0.4,0.4,0,0,0-.26.1,4.83,4.83,0,0,1-1.89.37H198a0.24,0.24,0,0,0-.21,0,13.15,13.15,0,0,0-1.61-.06c-0.06.07-.19,0.09-0.25,0.16a0.9,0.9,0,0,0-.55.4h-0.07a13.4,13.4,0,0,0-1.3.83c-0.68.42-1.38,0.78-2,1.19l-0.13,0-0.57.27-0.77.3a3.65,3.65,0,0,1-1.43.31l-1-.07a0.57,0.57,0,0,0-.42-0.15l0-.13a4.51,4.51,0,0,1,2.77-2.49,1.64,1.64,0,0,1,1.24-.22,0.67,0.67,0,0,0,.94-0.52,1.68,1.68,0,0,0-1.25-.38,2.4,2.4,0,0,1-1.81-3.19l0.32-.64-0.79.1a7.06,7.06,0,0,0-.3,2.45,3.05,3.05,0,0,0,1.34,1.57c0.07,0,.07,0,0.07.06a5.24,5.24,0,0,0-.94.52l-0.57.27-0.06.07a13.18,13.18,0,0,1-4.18.86,20.79,20.79,0,0,0-5.32.8,1.37,1.37,0,0,0-.38.18,4.5,4.5,0,0,0-2.22,3.09,11.87,11.87,0,0,1,2.79-5.5c1.7-2.49,3.8-3.36,6.31-2.53q1,0.38.35-.44a8.68,8.68,0,0,1,.09-0.88h0Z" transform="translate(-162.18 -446.9)"/><path class="cls-1" d="M186.77,474.33v-0.07c0.07,0,.07,0,0.06-0.07v-0.07a1,1,0,0,1,.36-0.31,0.71,0.71,0,0,1,.3-0.24l-1.52.19c-0.17.22-.35,0.38-0.53,0.6a2.35,2.35,0,0,1-1.77.82l-0.2,0c-1.08-.06-2.1-0.2-3.12-0.34a5.27,5.27,0,0,0-2.26.15,5,5,0,0,0-1,.4c-0.12.08-.26,0.1-0.38,0.18,0-.21.14-0.49,0.18-0.69l-1.05.13c0,0.21,0,.4-0.06.61a1,1,0,0,1,.13.52,1.39,1.39,0,0,0-.83.84v0.07a23.49,23.49,0,0,0-3.08,1.59,21.24,21.24,0,0,0-4.89,3.69,7.82,7.82,0,0,0-1.89,2.51l1.52-.19a4,4,0,0,1,1.32-1.24,7.56,7.56,0,0,1,2.12-1.27,25.55,25.55,0,0,1,5.31-1.94,31.84,31.84,0,0,1,5-.76l1.06-.13a5.87,5.87,0,0,0,2-.79l0.74-.49a13.11,13.11,0,0,0,1.23-.89,17.33,17.33,0,0,1,2.12-2.28,4.34,4.34,0,0,1,1.41-1l0.64-.28c0.32-.11.57-0.27,0.82-0.37l-2.77.35v0.07l0.07,0.06a1.18,1.18,0,0,1,.4,0,17.32,17.32,0,0,0-2.75,2.62l-0.89.91a4,4,0,0,0-.87.58,11.12,11.12,0,0,1-4.36,1,43,43,0,0,0-5,1c-0.45.12-1,.32-1.42,0.45a6.73,6.73,0,0,0-1.6.6,0.84,0.84,0,0,0-.39.12,13.25,13.25,0,0,0-3.62,2.13c0.24-.23.47-0.53,0.71-0.76a16.58,16.58,0,0,1,2.38-1.84,22.2,22.2,0,0,1,2.92-1.77,9.46,9.46,0,0,1,1.94-1,10.63,10.63,0,0,0,1.26-.63l0-.2a3.92,3.92,0,0,1,.07-0.48,4.47,4.47,0,0,1,2.36-.9c1.69,0.12,3.45.3,5.27,0.41,0.32-.11.65-0.15,1-0.26l0.06-.07a16.87,16.87,0,0,1,1.46-1.19h0Z" transform="translate(-162.18 -446.9)"/><path class="cls-1" d="M202.4,476.18a10.55,10.55,0,0,0,2.25.32,6.29,6.29,0,0,1,4.91.72,3.11,3.11,0,0,1-.07,2.08l0.79-.1a4.78,4.78,0,0,0,.07-0.48q0-.41.1-0.82a3.31,3.31,0,0,0,0-.8,1.37,1.37,0,0,0-.24-0.3,4.14,4.14,0,0,0-3.82-1.13,6.11,6.11,0,0,1-6.55-2.59,3,3,0,0,1-.2-1l-0.79.1,0,0.13a4.73,4.73,0,0,0,3.57,3.9h0Z" transform="translate(-162.18 -446.9)"/><path class="cls-1" d="M209.49,479.31a5.67,5.67,0,0,1-1.1,1.41,4,4,0,0,1-4.61,1.12,2.23,2.23,0,0,1-.75-1.71l-1.32.17q-0.1,2.42,2.77,2.87a8.58,8.58,0,0,0,2.5.22,7.62,7.62,0,0,0,3.54-1.11,14.51,14.51,0,0,0,1.7-1.42l0.81-1-0.07-.06a1.41,1.41,0,0,1,.48-0.93l-1.19.15a8.67,8.67,0,0,1-.76,1.37,5.64,5.64,0,0,1-3.28,2.09,4,4,0,0,1-1.25.16c-0.14,0-.21,0-0.2,0a3.78,3.78,0,0,1,.88-0.45,5.07,5.07,0,0,0,2.38-2.37,2.18,2.18,0,0,1,.26-0.57l-0.79.1h0Zm-7.05,1.42,0,0.13,0,0.33,0.12,0.45a1,1,0,0,1-.35-1.16,0.24,0.24,0,0,1,0-.21,1.3,1.3,0,0,0,.12.45h0Z" transform="translate(-162.18 -446.9)"/><path class="cls-1" d="M242.44,475.17l-0.86.11c0.24,0.3.41,0.62,0.66,1v0.07a1.8,1.8,0,0,0,.69,1.72,2.62,2.62,0,0,0,1.26,1c1.19,0.45,2.4,1,3.6,1.49a3.48,3.48,0,0,1,2.51,3,4.67,4.67,0,0,1-.41,2.6,4.52,4.52,0,0,1-.45.73,0.53,0.53,0,0,0-.1.82l0.13,0,0.25,0.37a4.87,4.87,0,0,1,.36,2.36,0.38,0.38,0,0,0,.45.41,0.31,0.31,0,0,0,0,.4l1.19-.15a3.12,3.12,0,0,0-1-.27,1,1,0,0,0,.23-0.3,9,9,0,0,0,0-1.34,4.73,4.73,0,0,0-.82-1.7,1.49,1.49,0,0,0,.3-0.31l0.23-.3a6.06,6.06,0,0,0,.54-1.54,4.54,4.54,0,0,0-2.82-5.4,25.72,25.72,0,0,0-2.46-.9c-0.42-.15-0.84-0.3-1.19-0.45a4.2,4.2,0,0,1-1.39-1,0.8,0.8,0,0,0-.37-0.29,2.24,2.24,0,0,0,0-.67H243a6.06,6.06,0,0,0,.54-1.54l-0.79.1a1.87,1.87,0,0,1-.09.35,1.78,1.78,0,0,0-.18-0.31h0Z" transform="translate(-162.18 -446.9)"/><path class="cls-1" d="M166.72,484.68l-1.52.19a7.7,7.7,0,0,0-.5,5.62,4.61,4.61,0,0,0,1.67,2.67,3.17,3.17,0,0,0-1.28.43,6.23,6.23,0,0,0-2.63,3.54,4.76,4.76,0,0,0-.11,2.89,3.06,3.06,0,0,0,1.46,2l0.92-.12a1.47,1.47,0,0,1-.24-0.3,3.05,3.05,0,0,1-1.58-3,5.19,5.19,0,0,1,3.36-4.71,0.53,0.53,0,0,0,.54-0.54c0.31-.17.27-0.5-0.26-1a6.78,6.78,0,0,1-1.4-3.71l0-.26,0.16,0.18a3.56,3.56,0,0,0,.3-1.31,6.26,6.26,0,0,1,1.15-2.55h0Z" transform="translate(-162.18 -446.9)"/><path class="cls-1" d="M203.13,479.31a0.37,0.37,0,0,0-.12-0.45,2.18,2.18,0,0,0-1.19,1.15c-0.06.07,0,.21-0.1,0.28l1.32-.17a1.77,1.77,0,0,1,.1-0.82h0Z" transform="translate(-162.18 -446.9)"/><path class="cls-1" d="M164.73,501.93l-0.92.12c-0.08.41-.11,0.75-0.14,1-0.88,4.19.48,7,4.21,8.44a1.71,1.71,0,0,1,.48.07c-0.06.07-.18,0.16-0.24,0.23a7.79,7.79,0,0,0,.63,6.62l0.92-.12a7.4,7.4,0,0,1-1.26-5.26,3.22,3.22,0,0,1,.81-1.57l0.12-.08a0.37,0.37,0,0,0,.21-0.43,0.57,0.57,0,0,0-.9-0.22,3.84,3.84,0,0,1-4.06-3.51,11.13,11.13,0,0,1-.12-4.67l0-.33a0.36,0.36,0,0,0,.3-0.3h0Z" transform="translate(-162.18 -446.9)"/><path class="cls-1" d="M173.79,521.28l-0.09-.19c0.22-.36.06-0.61-0.41-0.62a1.93,1.93,0,0,1-1.49-.15,9.63,9.63,0,0,1-2.13-2l-0.92.12a8.44,8.44,0,0,0,2.18,2.4,3.48,3.48,0,0,0,2.27.45,5.87,5.87,0,0,0,.19,1.52,2.28,2.28,0,0,1,.15.65,4.74,4.74,0,0,0,2.47,3.71,8.66,8.66,0,0,0,4.56.1c0.25-.1.41,0.08,0.45,0.41a8.8,8.8,0,0,0,6.31,5,6.36,6.36,0,0,0,5-.7,4.46,4.46,0,0,0,.83-0.84,0.93,0.93,0,0,0,.24-0.23,11.23,11.23,0,0,1,1.41-1,7.87,7.87,0,0,1,1.16-.88,0.89,0.89,0,0,0,.4-0.59l0.53-.07c0.19-.09.45-0.12,0.71-0.22l0.4,0h0.07l-1-.28a0.83,0.83,0,0,0-.39.12,1.84,1.84,0,0,0-.59.14,0.41,0.41,0,0,0-.32.11c-0.06.07-.18,0.16-0.24,0.23l-0.91.72a15.82,15.82,0,0,0-1.83,1.43,2,2,0,0,0-.4.59l-0.26.1a7.71,7.71,0,0,1-2.92.77,5.57,5.57,0,0,1-2.11-.27,7.67,7.67,0,0,1-5.33-4.08,2.43,2.43,0,0,0-.68-1.19,6,6,0,0,0-1.51.26c-2.26.62-3.89,0-4.94-2a12.71,12.71,0,0,1-.89-3.37h0Z" transform="translate(-162.18 -446.9)"/><path class="cls-1" d="M252.08,491.16a1.38,1.38,0,0,1-.35-0.16l-1.19.15a0.13,0.13,0,0,0,.08.12,6.42,6.42,0,0,1,2.85,2.45,8.83,8.83,0,0,1,.53,5.82,13.24,13.24,0,0,1-2.08,4.75,8.53,8.53,0,0,1-3.7,3.08,0.79,0.79,0,0,0-.84.78,1.09,1.09,0,0,0,.42.15,0.24,0.24,0,0,0,.09.19l0.92-.12c-0.08-.06-0.09-0.19-0.17-0.25a2.55,2.55,0,0,1,.38-0.18,9.86,9.86,0,0,0,4-3.78,12.08,12.08,0,0,0,1.93-8.61,6.14,6.14,0,0,0-2.89-4.39h0Z" transform="translate(-162.18 -446.9)"/><path class="cls-1" d="M232.6,521a2.77,2.77,0,0,1-.56.34,4.83,4.83,0,0,0,5.78,1.82,5.31,5.31,0,0,0,2.65-2.34,1.48,1.48,0,0,1,1.31-1.3,11.36,11.36,0,0,0,2-.45c4-1.24,6.08-3.84,6.31-7.82a6.81,6.81,0,0,0-1.29-2.85l-0.92.12a1.25,1.25,0,0,0,.41.62,4.63,4.63,0,0,1,.05,5.75,10.79,10.79,0,0,1-6.15,3.79,2.58,2.58,0,0,0-2.44,1.85,4.27,4.27,0,0,1-4.42,2.16A5.85,5.85,0,0,1,232.6,521h0Z" transform="translate(-162.18 -446.9)"/><path class="cls-2" d="M217,451.93c0.3-.24.55-0.4,0.86-0.64a3.14,3.14,0,0,1,.62-0.41,8,8,0,0,1,2.45-.71,2.25,2.25,0,0,1,.67,0,1.58,1.58,0,0,1,.54.07c0.21,0,.42.15,0.62,0.19a7,7,0,0,1,1.17.79,1.18,1.18,0,0,1,.39.42c0.09,0.19.17,0.31,0.26,0.5a3,3,0,0,1,.3,1.3,2.31,2.31,0,0,1,0,.67c0,0.4,0,.81,0,1.28a5.47,5.47,0,0,1-.19,1.16,5,5,0,0,1-1,2,4.55,4.55,0,0,0-1,2.33l-0.12.62c0.06-.07.12-0.08,0.18-0.16a18.17,18.17,0,0,1,2.49-2.59c0.66-.62,1.38-1.31,2-2a5.42,5.42,0,0,0,.52-6,11.18,11.18,0,0,0-1-1.42,3.57,3.57,0,0,0-.65-0.39,8.67,8.67,0,0,0-7.57.48,11.37,11.37,0,0,0-3.23,2.55c-0.54.47-1,1-1.55,1.53a27.26,27.26,0,0,0-3.56,4.67,6.13,6.13,0,0,0-.52,1.2c0,0.21,0,.34-0.06.54V460l0,0.13a2.86,2.86,0,0,1,.71-1.23,3.77,3.77,0,0,0,.63-0.82,18.31,18.31,0,0,1,1.31-1.84,11.28,11.28,0,0,1,1.71-1.82c0.36-.38.72-0.69,1.14-1.08l0.71-.69c0.37-.25.74-0.49,1-0.73h0Z" transform="translate(-162.18 -446.9)"/><path class="cls-3" d="M218.44,450.87a3.14,3.14,0,0,0-.62.41c-0.3.24-.55,0.4-0.86,0.64s-0.68.49-1,.73l-0.71.69c-0.42.39-.78,0.7-1.14,1.08a11.28,11.28,0,0,0-1.71,1.82,18.31,18.31,0,0,0-1.31,1.84,3.77,3.77,0,0,1-.63.82,4.46,4.46,0,0,0-.45.66l3.17-.4a10.6,10.6,0,0,1,1.55-2.6,12.29,12.29,0,0,1,3-3.39,4.12,4.12,0,0,1,.75-0.43c0.06-.07.19-0.09,0.25-0.16a2.31,2.31,0,0,1,2.74,0,4.82,4.82,0,0,1,.36,4.44,7.34,7.34,0,0,1-.33,1.11l2.77-.35a9.87,9.87,0,0,0,.44-1.26,5.47,5.47,0,0,0,.19-1.16c0-.47,0-0.87,0-1.28a2.31,2.31,0,0,0,0-.67,3,3,0,0,0-.3-1.3c-0.09-.19-0.17-0.31-0.26-0.5a1.18,1.18,0,0,0-.39-0.42,7,7,0,0,0-1.17-.79c-0.21,0-.42-0.15-0.62-0.19a1.58,1.58,0,0,0-.54-0.07,2.25,2.25,0,0,0-.67,0,8,8,0,0,0-2.45.71h0Z" transform="translate(-162.18 -446.9)"/><path class="cls-3" d="M219.86,455.31a0.41,0.41,0,0,1,.26-0.1,2.18,2.18,0,0,1,1.09-.4c0.16-1.42-.45-2-1.75-1.65A12.55,12.55,0,0,0,214.1,459c0,0.07,0,.07-0.06.07l2.24-.28a12.92,12.92,0,0,1,2.35-2.64,4.16,4.16,0,0,1,1.23-.82h0Z" transform="translate(-162.18 -446.9)"/><path class="cls-3" d="M216.29,458.84v-0.07l-2.24.28a7.86,7.86,0,0,0-.88,5.8,0.89,0.89,0,0,1,0,.94,3.49,3.49,0,0,1-.56-1.27,1.32,1.32,0,0,1-.16-0.72,10.4,10.4,0,0,1,.69-4.64l-3.17.4a2.27,2.27,0,0,0-.26.57,13.28,13.28,0,0,0,.14,1.66l0,0.33a3.23,3.23,0,0,1-.08,1.48l-0.13.08c-0.06.07-.19,0.09-0.25,0.17a0.42,0.42,0,0,1-.33-0.49,17.13,17.13,0,0,0-.66-3.13c-0.08-.12-0.1-0.26-0.18-0.38s-0.06,0-.07-0.06l-8.44,1.06c-0.06.07-.11,0.21-0.16,0.29a1.17,1.17,0,0,1-.27.5A4.12,4.12,0,0,0,199,463c0,0.21,0,.47,0,0.67a0.51,0.51,0,0,0,.17.31,3.7,3.7,0,0,0,.54.54,4,4,0,0,0,1.29.71,5,5,0,0,0,.85.36l1,0.27a12,12,0,0,1,1.45.35c0.07,0.06.21,0,.28,0.1,0.35,0.16.77,0.31,1.19,0.45a0.35,0.35,0,0,1,.16.25l0,0.13a1.44,1.44,0,0,1-.73,1.1,3.09,3.09,0,0,1-.62.41,2.39,2.39,0,0,1-.69.35c-0.26.1-.51,0.2-0.83,0.31a2.38,2.38,0,0,0-1.33,1.64,3,3,0,0,0-.07,1.08l5-.63c-0.92-.42-1-0.95-0.26-1.51,1.29-.9,2.58-1.86,3.8-2.82l0.06-.07a1.83,1.83,0,0,0,.23-0.83,1.52,1.52,0,0,0-1.32-.91,7.21,7.21,0,0,0-1.11-.33,0.51,0.51,0,0,1-.44-0.28,8.31,8.31,0,0,1-1.46-1,2.93,2.93,0,0,1-1.22-2.79,0.52,0.52,0,0,1,.31-0.17,2.67,2.67,0,0,1,2.44,1.3,5.82,5.82,0,0,1,1.51,2.42,7.22,7.22,0,0,1,1.06.4,1.68,1.68,0,0,1,1,1.34,1.23,1.23,0,0,1-.17.76,1.4,1.4,0,0,1-.16.35,1.73,1.73,0,0,1-.35.38l0.16,0.18a5.49,5.49,0,0,0,2.79.92c1.8-.09,3.54-0.11,5.27-0.13a0.24,0.24,0,0,1,.19-0.09,0.75,0.75,0,0,1,.52-0.13h1.61a16.37,16.37,0,0,1,3.89.65l4.81-.6-0.07-.06c-0.42-.15-0.84-0.3-1.19-0.45-1.54-.54-3.08-1.09-4.61-1.56a8.37,8.37,0,0,0-2.9-.17l-0.9.31a1.11,1.11,0,0,0-.37.25,6.3,6.3,0,0,1-1.31.77,7.46,7.46,0,0,1-1.56.4H216.9a5.74,5.74,0,0,1-1.89-.1c-0.16-.18-0.31-0.3-0.39-0.42a1.38,1.38,0,0,1-.24-0.84,2.46,2.46,0,0,1,.44-1.33,4,4,0,0,1,.15-4.17c0.17-.29.32-0.64,0.54-1s0.34-.51.51-0.73a0.77,0.77,0,0,1,.27-0.5h0Z" transform="translate(-162.18 -446.9)"/><path class="cls-3" d="M217.09,463.56a1.44,1.44,0,0,0-.63.35,5.75,5.75,0,0,0-.51.73,2.21,2.21,0,0,0-.68,2.09,1.64,1.64,0,0,0,.13.52,5.06,5.06,0,0,0,1.73-.08h0.07a10.09,10.09,0,0,0,1.52-.66,2,2,0,0,1,1.6-.6,0.4,0.4,0,0,1,.25-0.1,10.11,10.11,0,0,1,6.81,1,13.54,13.54,0,0,0,5.19,1.36l0.4,0a0.39,0.39,0,0,0-.1-0.26,0.41,0.41,0,0,1-.1-0.26l-0.25-2a2,2,0,0,0-.45-0.95c-0.22-.17-0.44-0.28-0.66-0.45a2.43,2.43,0,0,0-.77-0.24,4.16,4.16,0,0,1-.83-0.23,3.46,3.46,0,0,0-2.47,0,0.5,0.5,0,0,1,0-.34,1.07,1.07,0,0,0,.12-0.62,2.08,2.08,0,0,1,.2-0.56,1.34,1.34,0,0,0,.08-1.48,0.8,0.8,0,0,0-.37-0.29,1.27,1.27,0,0,0-1-.15,5.33,5.33,0,0,0-.89.92c-0.06.07-.18,0.16-0.24,0.23a3.55,3.55,0,0,0-.86,1.71c0.16,0.18.41,0.08,0.85-.17h0.07a1.72,1.72,0,0,1,1.15-.41,1.45,1.45,0,0,1-.3.3c-0.17.22-.48,0.46-0.77,0.77a1,1,0,0,0-.25.17h-0.06a4.57,4.57,0,0,1-2.78.82c-0.27,0-.41-0.08-0.44-0.28a3.08,3.08,0,0,1,.64-2.89l0.12-.62a4.55,4.55,0,0,1,1-2.33c0.17-.22.34-0.51,0.51-0.73l-2.77.35c-0.26.57-.53,1.14-0.8,1.64a11.73,11.73,0,0,1-1.79,2.23,19.73,19.73,0,0,1-1.74,1.56h0Z" transform="translate(-162.18 -446.9)"/><path class="cls-3" d="M197.55,449.81a11.45,11.45,0,0,0-4,1.58c-1.36,1.44-1.41,3.12,0,5,0.26,0.5.47,1.08,0.74,1.65a0.63,0.63,0,0,1-.08.95,2.92,2.92,0,0,0-1.94,1.58,3.27,3.27,0,0,0,0,.8,10.91,10.91,0,0,1,5.25-1.86,0.4,0.4,0,0,1-.1-0.26,3.27,3.27,0,0,1,.16-1.36,2.84,2.84,0,0,1,1.06-1.14,1.77,1.77,0,0,1,.31-0.17,6.64,6.64,0,0,1,7,1.53,1,1,0,0,1,.16.25,1.29,1.29,0,0,1,.21,1.65,0.66,0.66,0,0,1-.41-0.62,4.08,4.08,0,0,0-.95-1.15,4.22,4.22,0,0,0-1.16-.19,3.12,3.12,0,0,0-1.56.4l-0.63.28a2.32,2.32,0,0,0-.87.51l-0.17.22a2.83,2.83,0,0,1-.41.45c-0.06.07-.11,0.21-0.16,0.29a3.11,3.11,0,0,0-.25.7l8.44-1.06c-0.28-.63-0.49-1.28-0.7-1.85a14.74,14.74,0,0,0-5.6-7.26,6.14,6.14,0,0,0-4.32-.86h0Z" transform="translate(-162.18 -446.9)"/><path class="cls-3" d="M206.68,471.36l-5,.63a2.52,2.52,0,0,0,.4,1.09,3.52,3.52,0,0,0,.57.8,2.55,2.55,0,0,0,.82.63,3.79,3.79,0,0,0,.92.42,3.1,3.1,0,0,0,1.57.2,2.61,2.61,0,0,1,1.22.11,10.34,10.34,0,0,1,2.38.84,0.69,0.69,0,0,1,.38.35,0.51,0.51,0,0,1,.17.31l0.07,0.06a1.37,1.37,0,0,1,.24.3,3.31,3.31,0,0,1,0,.8q-0.05.41-.1,0.82a6.88,6.88,0,0,1-.34,1,5.07,5.07,0,0,1-2.38,2.37,3.78,3.78,0,0,0-.88.45c0-.07.06-0.07,0.2,0a4,4,0,0,0,1.25-.16,5.64,5.64,0,0,0,3.28-2.09,8.88,8.88,0,0,0,1.66-4.36,4.82,4.82,0,0,0-3.67-3.62,19.75,19.75,0,0,1-2.8-1h0Z" transform="translate(-162.18 -446.9)"/><path class="cls-3" d="M233,468.06l-0.4,0a0.84,0.84,0,0,1,.41,0v-0.07h0Z" transform="translate(-162.18 -446.9)"/><path class="cls-3" d="M236.55,468.21c-0.25.1-.52,0.13-0.71,0.22a9.56,9.56,0,0,1-6,0l-4.81.6c0.89,0.16,1.71.32,2.55,0.55s1.87,0.5,2.78.79a12,12,0,0,0,3.11.28c1.37-.24,2.81-0.55,4.18-0.79,0.05-.14,0-0.27.08-0.41l0-.13c-0.16-.18-0.31-0.3-0.46-0.48a0.66,0.66,0,0,0-.3-0.3,1.16,1.16,0,0,0-.45-0.35h0Z" transform="translate(-162.18 -446.9)"/><path class="cls-2" d="M226.45,460.31a1.27,1.27,0,0,1,1,.15,0.8,0.8,0,0,1,.37.29,1.34,1.34,0,0,1-.08,1.48,2.08,2.08,0,0,0-.2.56,1.07,1.07,0,0,1-.12.62,0.5,0.5,0,0,0,0,.34,3.46,3.46,0,0,1,2.47,0,4.16,4.16,0,0,0,.83.23,2.43,2.43,0,0,1,.77.24c0.22,0.17.44,0.28,0.66,0.45a2,2,0,0,1,.45.95l0.25,2a0.41,0.41,0,0,0,.1.26,0.39,0.39,0,0,1,.1.26v0.07a13.36,13.36,0,0,0,1.66-.14c1-.33,2-0.59,3-0.84a3.81,3.81,0,0,0-1-.15,0.81,0.81,0,0,1-1.14-.53,5.19,5.19,0,0,0-.25-1.44c-0.78-2.51-2.43-3.38-4.89-2.67a1,1,0,0,1-1.31.23,0.56,0.56,0,0,1,.3-0.84,4.76,4.76,0,0,0,.07-4.76,0.91,0.91,0,0,0-.23-0.24,1.53,1.53,0,0,0-.32.64l-0.46.59,0-.2a0.66,0.66,0,0,0-.22.36c-0.58.68-1.16,1.42-1.74,2.16h0Z" transform="translate(-162.18 -446.9)"/><path class="cls-2" d="M209.93,476.44a0.69,0.69,0,0,0-.38-0.35,10.34,10.34,0,0,0-2.38-.84,2.61,2.61,0,0,0-1.22-.11,3.1,3.1,0,0,1-1.57-.2,3.79,3.79,0,0,1-.92-0.42,2.54,2.54,0,0,1-.82-0.63,3.52,3.52,0,0,1-.57-0.8,2.53,2.53,0,0,1-.34-2.17,2.38,2.38,0,0,1,1.33-1.64c0.32-.11.57-0.21,0.83-0.31a2.39,2.39,0,0,0,.69-0.35,3.09,3.09,0,0,0,.62-0.41,1.44,1.44,0,0,0,.73-1.1l0-.13a0.35,0.35,0,0,0-.16-0.25c-0.42-.15-0.84-0.3-1.19-0.45-0.08-.06-0.21,0-0.28-0.1a12,12,0,0,0-1.45-.35l-1-.27a5,5,0,0,1-.85-0.36,4,4,0,0,1-1.29-.71,3.7,3.7,0,0,1-.54-0.54,0.51,0.51,0,0,1-.17-0.31c0-.21,0-0.47,0-0.67a4.12,4.12,0,0,1,.3-1.31,1.17,1.17,0,0,0,.27-0.5c0.16-.35.26-0.63,0.41-1,0.06-.07.11-0.21,0.16-0.29a2.83,2.83,0,0,0,.41-0.45l0.17-.22a2.32,2.32,0,0,1,.87-0.51l0.63-.28a3.12,3.12,0,0,1,1.56-.4,4.22,4.22,0,0,1,1.16.19,4.43,4.43,0,0,0-2.55-1.15c-2.42-.63-3.81.08-4.23,2.07a3.74,3.74,0,0,0,.78.84,0.52,0.52,0,0,1-.63.35,3.11,3.11,0,0,0-1.15-.06,2.85,2.85,0,0,0-.43.32,11.08,11.08,0,0,0-1.67,1.08,2.82,2.82,0,0,0-.88,3.12,6.8,6.8,0,0,0,4.71,2.89,12.53,12.53,0,0,0,1.68.06,10.4,10.4,0,0,1,1.33-.1c0.26-.1.52-0.13,0.77-0.23a2.86,2.86,0,0,1,1.87,0,1.48,1.48,0,0,0,.35.16,0.24,0.24,0,0,1-.19.09l-1.82.43a4.86,4.86,0,0,0-1.58.73,1.19,1.19,0,0,0-.42.39,3.32,3.32,0,0,0-1.11,4,6.11,6.11,0,0,0,6.55,2.59,4.14,4.14,0,0,1,3.82,1.13l-0.07-.06a0.51,0.51,0,0,0-.17-0.31h0Z" transform="translate(-162.18 -446.9)"/><path class="cls-2" d="M237.91,467.84a5.07,5.07,0,0,0-1.36.37,1.16,1.16,0,0,1,.45.35,0.66,0.66,0,0,1,.3.3c0.16,0.18.3,0.3,0.46,0.48l0,0.13c0,0.14,0,.27-0.08.41a17.55,17.55,0,0,1,1.9-.37,5.46,5.46,0,0,1,1.43.22v-0.07a6.68,6.68,0,0,0-1.82-1.71l-0.08-.12a1.87,1.87,0,0,0-1.2,0h0Z" transform="translate(-162.18 -446.9)"/><path class="cls-2" d="M208.52,457.74l0-.13c-0.45-.95-0.83-1.84-1.29-2.78a12.61,12.61,0,0,0-9.92-7,6.81,6.81,0,0,0-5.71,3.06,4.52,4.52,0,0,0-.22,5.72c0.59,0.46.58,0.87-.06,1.15a10.88,10.88,0,0,0-2.06.66,3.12,3.12,0,0,0-1.51,4l0,0.2,0.14,0a0.3,0.3,0,0,1,0,.33,4.15,4.15,0,0,0,.49.68c0.09,0.19,0,.34-0.28.44a1.06,1.06,0,0,1-.77-0.84,2.8,2.8,0,0,0-1.28,2.1,8.68,8.68,0,0,0-.09.88q0.61,0.83-.35.44c-2.51-.82-4.61,0-6.31,2.53a11.87,11.87,0,0,0-2.79,5.5,4.5,4.5,0,0,1,2.22-3.09,1.37,1.37,0,0,1,.38-0.18,20.79,20.79,0,0,1,5.32-.8,13.18,13.18,0,0,0,4.18-.86l0.06-.07,0.57-.27a5.24,5.24,0,0,1,.94-0.52c0-.07,0-0.07-0.07-0.06a3.05,3.05,0,0,1-1.34-1.57,6,6,0,0,1,3-5.74l0.19-.09-0.16-.18a2.51,2.51,0,0,1,2-2.73c-0.11-.32-0.27-0.57-0.38-0.89a15,15,0,0,1-1.61-4.28,4,4,0,0,1,3-3.45,0.4,0.4,0,0,1,.26-0.1,8.29,8.29,0,0,1,5.34-.67,10.82,10.82,0,0,1,6.21,5.24c0.34,0.56.68,1.12,0.95,1.69a20.91,20.91,0,0,1,1.16,2.8l0.16,1.25a3.41,3.41,0,0,0,.23.77c-0.18-.91-0.36-1.83-0.55-2.81a1.19,1.19,0,0,0-.11-0.39h0Z" transform="translate(-162.18 -446.9)"/><path class="cls-4" d="M208.66,464.22a2.76,2.76,0,0,1-.32-0.43c-0.32-.43-0.65-0.92-1-1.34a3.85,3.85,0,0,0-1.49-1.22,0.13,0.13,0,0,0-.2,0,4.09,4.09,0,0,0,2.92,3l0.13,0h0Z" transform="translate(-162.18 -446.9)"/><path class="cls-4" d="M215.72,463.87c0.3-.31.66-0.62,1-1l0.2,0c0.36-.38.7-0.82,1.12-1.21a10.29,10.29,0,0,0,3.11-6.15,2,2,0,0,0-1,.4,13,13,0,0,0-4.23,4.68,5.47,5.47,0,0,0-.94,4.2l0.08,0.12a12,12,0,0,1,.67-1h0Z" transform="translate(-162.18 -446.9)"/><path class="cls-5" d="M229.06,453.89h0.07a1.88,1.88,0,0,0,0-.6,1.19,1.19,0,0,1-.11-0.39,5.44,5.44,0,0,1,0,1.75,6.23,6.23,0,0,1-2.31,3.44q-1,.83-1.8,1.63a9,9,0,0,0-2.39,2.84,0.25,0.25,0,0,0,0,.21,1.87,1.87,0,0,0-.1,1.35,1.84,1.84,0,0,0,1.33-.1l0.13,0a1.8,1.8,0,0,1,.31-0.17,0.78,0.78,0,0,1-.32-0.43,5.34,5.34,0,0,1,2-3.4,18.11,18.11,0,0,0,2.77-3.56l0-.13a12,12,0,0,0,.51-1.8,1.81,1.81,0,0,0,0-.6h0Z" transform="translate(-162.18 -446.9)"/><path class="cls-6" d="M228,470.62c-0.35-.09-0.63-0.19-0.83-0.23a3.1,3.1,0,0,0-.7-0.25,3.79,3.79,0,0,1,.65.39,23.09,23.09,0,0,0,4.9,2.26,11.81,11.81,0,0,0,4.1.15,0.41,0.41,0,0,1,.28,0,13,13,0,0,1,2.35,0,4.09,4.09,0,0,1,3.86,2.46l0.39-1.66c0-.21.07-0.48,0.11-0.68a6.21,6.21,0,0,0-1.85-2.45,4.76,4.76,0,0,0-3.36-.11,13.91,13.91,0,0,1-7.34.72c-0.9-.22-1.73-0.45-2.56-0.68h0Z" transform="translate(-162.18 -446.9)"/><path class="cls-3" d="M191.41,468.59a1.68,1.68,0,0,1,1.25.38,0.67,0.67,0,0,1-.94.52,1.64,1.64,0,0,0-1.24.22,4.51,4.51,0,0,0-2.77,2.49l0,0.13a0.57,0.57,0,0,1,.42.15l1,0.07a3.65,3.65,0,0,0,1.43-.31l0.77-.3,0.57-.27,0.13,0c0.62-.41,1.31-0.77,2-1.19a13.4,13.4,0,0,1,1.3-.83h0.07a0.9,0.9,0,0,1,.55-0.4c0.06-.07.19-0.09,0.25-0.16a13.15,13.15,0,0,1,1.61.06,0.24,0.24,0,0,1,.21,0h0.07a4.83,4.83,0,0,0,1.89-.37,0.4,0.4,0,0,1,.26-0.1,4,4,0,0,1,.43-0.32,0.5,0.5,0,0,0-.27,0,8.28,8.28,0,0,1-2.58-.28c-0.21,0-.35-0.16-0.56-0.2-2.78-.79-3.93-2.52-3.53-5.18a5.64,5.64,0,0,1,2.4-2.24,0.84,0.84,0,0,1,.39-0.12,10.29,10.29,0,0,0-4.31,1.95,8.55,8.55,0,0,0-2.62,3.14,2.4,2.4,0,0,0,1.81,3.19h0Z" transform="translate(-162.18 -446.9)"/><path class="cls-6" d="M176.65,476.34a3.92,3.92,0,0,0-.07.48l0,0.2a10.68,10.68,0,0,1-1.26.63,9.46,9.46,0,0,0-1.94,1,22.2,22.2,0,0,0-2.92,1.77,16.58,16.58,0,0,0-2.38,1.84c-0.24.23-.47,0.53-0.71,0.76a13.25,13.25,0,0,1,3.62-2.13,0.84,0.84,0,0,1,.39-0.12,6.73,6.73,0,0,1,1.6-.6c0.45-.12,1-0.32,1.42-0.45a43,43,0,0,1,5-1,11.12,11.12,0,0,0,4.36-1,4,4,0,0,1,.87-0.58l0.89-.91a17.32,17.32,0,0,1,2.75-2.62,1.18,1.18,0,0,0-.4,0l-0.07-.06v-0.07a0.13,0.13,0,0,0-.14,0c-0.18.16-.37,0.25-0.43,0.32a1,1,0,0,0-.36.31v0.07c0,0.07,0,.07-0.06.07v0.07a16.87,16.87,0,0,0-1.46,1.19l-0.06.07c-0.32.11-.65,0.15-1,0.26-1.82-.11-3.58-0.29-5.27-0.41a4.47,4.47,0,0,0-2.36.9h0Z" transform="translate(-162.18 -446.9)"/><path class="cls-3" d="M176.69,475.6c0.12-.08.25-0.1,0.38-0.18a5,5,0,0,1,1-.4,5.27,5.27,0,0,1,2.26-.15c1,0.14,2,.28,3.12.34l0.2,0a2.35,2.35,0,0,0,1.77-.82,8,8,0,0,1,1.55-1.53,0.72,0.72,0,0,1-.07-0.53,1.89,1.89,0,0,1,.62-1.48,17.66,17.66,0,0,1-1.89.37l-3.72.27a19.85,19.85,0,0,0-2,.31,4.93,4.93,0,0,0-3.27,3.82h0Z" transform="translate(-162.18 -446.9)"/><path class="cls-7" d="M202.45,480.86l0-.13a1.3,1.3,0,0,1-.12-0.45,0.24,0.24,0,0,0,0,.21,1,1,0,0,0,.35,1.16l-0.12-.45,0-.33h0Z" transform="translate(-162.18 -446.9)"/><path class="cls-8" d="M234.53,476.7l-0.45-.41a4.53,4.53,0,0,0-.83-0.77l-2.75-2.2-0.52-.4h-0.07a6.66,6.66,0,0,1-1.21-.58,2.55,2.55,0,0,1-.44-0.28,7.64,7.64,0,0,1-1.24-.78,11.15,11.15,0,0,0-5-2l-0.4,0-0.13,0a29.26,29.26,0,0,1,6.59,3.39,56.59,56.59,0,0,1,9.68,8.83,19.39,19.39,0,0,1,3.9,6.54,28.5,28.5,0,0,1,1.53,7.91l1.52-.19c0-.8-0.13-1.59-0.22-2.31-0.22-1.24-.44-2.42-0.72-3.59a2,2,0,0,1,.61.06,2,2,0,0,1,1.06.47,9.69,9.69,0,0,1,3.95,4.79L251,495a6.63,6.63,0,0,0-3-4.58,10.28,10.28,0,0,0-3.71-1.27l-0.62-.12c-0.71-1.38-1.48-2.69-2.25-4a7,7,0,0,1-.42-0.68c-0.07-.06-0.08-0.12-0.16-0.18a44.25,44.25,0,0,0-6.29-7.44h0Z" transform="translate(-162.18 -446.9)"/><path class="cls-8" d="M244.69,495.77l-1.52.19c0,0.34,0,.73,0,1.07,0.09,6.61-1.38,12-4.53,16.17a33.22,33.22,0,0,1-10.35,9.27c-1,.53-2,1.06-3,1.52a10.2,10.2,0,0,1-1.08.47,67.41,67.41,0,0,1-8.27,2.91,32.69,32.69,0,0,1-4.37.88,24.85,24.85,0,0,1-4.43,0c-1.36-.16-2.65-0.34-3.95-0.51a8.14,8.14,0,0,0-1.23-.18,64.06,64.06,0,0,1-7.88-2,33.65,33.65,0,0,1-6.27-3c-0.95-.62-2-1.29-2.93-2s-1.72-1.46-2.56-2.22a22,22,0,0,1-3.13-3.62,23.89,23.89,0,0,1-2.89-5.93,22.51,22.51,0,0,1-1.13-4.21l-1.45.18c-0.06.07-.06,0.07,0,0.13a22.77,22.77,0,0,0,1.18,4.07,24,24,0,0,0,1.15,2.8,3.85,3.85,0,0,1-2.73.14,7.74,7.74,0,0,1-2.84-2.39,13,13,0,0,1-1.06-1.54,9.86,9.86,0,0,1-.86-2.57l-1.32.17c0.09,0.19.11,0.39,0.21,0.64a8.33,8.33,0,0,0,1.77,3.46,9.5,9.5,0,0,0,3.32,2.46,7.75,7.75,0,0,0,1.66.39,8.91,8.91,0,0,0,2,.08c0.5,0.81,1,1.55,1.56,2.28a35.52,35.52,0,0,0,7.26,7.19c1,0.68,1.9,1.3,2.92,1.91a46.55,46.55,0,0,0,5.41,2.53c1.33,0.44,2.52.89,3.71,1.27l1,0.28H198c0.83,0.23,1.66.46,2.42,0.63l1.1,0.26a20.2,20.2,0,0,0,4.68.48c3.07-.05,4.8-0.13,5.27-0.13s2.1-.33,5.17-0.92a33.93,33.93,0,0,0,8.18-3.1c0.57-.27,1.13-0.61,1.7-0.88a10.35,10.35,0,0,1,1.26-.63c0-.07,0-0.07.06-0.07,0.75-.43,1.5-0.86,2.32-1.29l0.38-.18c0.68-.42,1.36-0.91,2-1.33,0-.07,0-0.07.06-0.07a0.24,0.24,0,0,1,.19-0.09,30.75,30.75,0,0,0,9.36-11.28c0-.07,0-0.07.06-0.07a28.21,28.21,0,0,0,1.25-2.83l0.26,0,2-.45,1.14-.54,0.12-.08,0.13,0,1-.79,0.89-.91,0.69-.89,0.87-1.65a13.46,13.46,0,0,0,.55-2.55A14.13,14.13,0,0,0,251,495l-1.58.2a10.77,10.77,0,0,1,.45,3.56,11.91,11.91,0,0,1-.36,1.92,11.05,11.05,0,0,1-3.17,4.62,3.85,3.85,0,0,1-2.7.34,32.91,32.91,0,0,0,1.11-9.85h0Z" transform="translate(-162.18 -446.9)"/><path class="cls-8" d="M179.78,481.57a10.13,10.13,0,0,0-1,1.39,40.54,40.54,0,0,0-4.12,7.68c-0.35.91-.71,1.83-1,2.74a17,17,0,0,0-.62,2,10.64,10.64,0,0,0-2.68,1.07,7.28,7.28,0,0,0-1.7,1.35,5.89,5.89,0,0,0-1.5,2.46v0.07a3.31,3.31,0,0,0-.26,1.17l0,0.2c0,0.27-.07.54-0.09,0.88l0,0.26a3.46,3.46,0,0,0,0,.86l0.1,0.79a2.94,2.94,0,0,0,.16.72l0,0.13,0,0.13,1.32-.17a5.93,5.93,0,0,1-.19-1.52,0.4,0.4,0,0,1,0-.27,0.83,0.83,0,0,1,0-.4,9.39,9.39,0,0,1,3.05-6.07,3.48,3.48,0,0,1,1.63-.87,22.23,22.23,0,0,0-.1,3,24.11,24.11,0,0,0,.34,3.77,16.45,16.45,0,0,0,.36,1.76l1.45-.18a9,9,0,0,1-.23-1.31,0.55,0.55,0,0,1-.06-0.46,27.3,27.3,0,0,1-.25-6.8,18,18,0,0,1,1.75-6.85,10.72,10.72,0,0,1,1.14-2.15,67.76,67.76,0,0,1,4.07-5.93c0.63-.88,1.32-1.71,2-2.46a5.87,5.87,0,0,1-2,.79,14.11,14.11,0,0,0-1.73,2.23h0Z" transform="translate(-162.18 -446.9)"/><path class="cls-7" d="M244.47,493.46a0.3,0.3,0,0,1,.33,0,1.41,1.41,0,0,1,.9.22,1.79,1.79,0,0,1,.53.47,4,4,0,0,0,1.13,1,1.57,1.57,0,0,1,.52.4,10.77,10.77,0,0,1,1.94,3.24c0.25-3.38-1.24-6.14-4.39-8.35a2,2,0,0,0-1.06-.47,2,2,0,0,0-.61-0.06c0.28,1.17.49,2.35,0.72,3.59h0Z" transform="translate(-162.18 -446.9)"/><path class="cls-9" d="M244.8,493.42a0.3,0.3,0,0,0-.33,0,31,31,0,0,1-.88,12.16,3.85,3.85,0,0,0,2.7-.34,11.05,11.05,0,0,0,3.17-4.62,11.91,11.91,0,0,0,.36-1.92,10.77,10.77,0,0,0-1.94-3.24,1.57,1.57,0,0,0-.52-0.4,4,4,0,0,1-1.13-1,1.79,1.79,0,0,0-.53-0.47,1.41,1.41,0,0,0-.9-0.22h0Z" transform="translate(-162.18 -446.9)"/><path class="cls-9" d="M168.42,503.55a0.4,0.4,0,0,0,0,.27,10.64,10.64,0,0,0,1,4.09,13,13,0,0,0,1.06,1.54,7.74,7.74,0,0,0,2.84,2.39,3.85,3.85,0,0,0,2.73-.14,24,24,0,0,1-1.15-2.8,22.77,22.77,0,0,1-1.18-4.07,17.68,17.68,0,0,1-.37-1.89,24.11,24.11,0,0,1-.34-3.77,9.77,9.77,0,0,0-3.22,2.08,12.4,12.4,0,0,0-1.15,1.48c-0.05.14-.17,0.29-0.21,0.43a0.83,0.83,0,0,0,0,.4h0Z" transform="translate(-162.18 -446.9)"/><path class="cls-7" d="M168.65,502.71a12.49,12.49,0,0,1,1.15-1.48,9.79,9.79,0,0,1,3.22-2.08,22.23,22.23,0,0,1,.1-3,3.48,3.48,0,0,0-1.63.87,9.39,9.39,0,0,0-3.05,6.07c0-.14.16-0.29,0.21-0.43h0Z" transform="translate(-162.18 -446.9)"/><path class="cls-4" d="M235.18,476c-0.48-.07-1-0.14-1.57-0.2,0.16,0.18.3,0.3,0.46,0.48l0.45,0.41a44.25,44.25,0,0,1,6.29,7.44,3,3,0,0,1,.62-0.95,1.4,1.4,0,0,0,.35-0.91,5,5,0,0,0-.17-1.38,6.09,6.09,0,0,0-.73-1.58,8.07,8.07,0,0,0-2.26-2.53,2.63,2.63,0,0,0-.73-0.44,3.84,3.84,0,0,0-1.44-.29,4.5,4.5,0,0,1-1.28,0h0Z" transform="translate(-162.18 -446.9)"/><path class="cls-5" d="M233.62,475.81c0.54,0.07,1.09.13,1.57,0.2a4.5,4.5,0,0,0,1.28,0,3.84,3.84,0,0,1,1.44.29,2.63,2.63,0,0,1,.73.44,8.07,8.07,0,0,1,2.26,2.53,6.09,6.09,0,0,1,.73,1.58,5,5,0,0,1,.17,1.38,1.4,1.4,0,0,1-.35.91,3,3,0,0,0-.62.95c0.07,0.06.08,0.12,0.16,0.18a9.13,9.13,0,0,0,2.79.32,3.16,3.16,0,0,1,1.44.29,2.31,2.31,0,0,1,1.15,1.19,4.91,4.91,0,0,0,.68,1.12,6,6,0,0,1,.93,3.16c2.46,1.5,3.48,4.25,3.1,8.18a13.46,13.46,0,0,1-.55,2.55l-0.87,1.65-0.69.89v0.07c-0.15.35-.37,0.78-0.52,1.2a5.72,5.72,0,0,1-.77,1.3,3.92,3.92,0,0,1-2,1.66,7.12,7.12,0,0,1-1.21.49,5.69,5.69,0,0,1-1.09.41,3.15,3.15,0,0,0-1.14.54c-0.07,0-.07,0-0.06.07v0.07c0.07,0.06.08,0.12,0.16,0.18a1.67,1.67,0,0,1,.37,1.36,8,8,0,0,1-.46,2.2,3.53,3.53,0,0,1-1.21,1.56,4.3,4.3,0,0,1-1.74,1.09,0.43,0.43,0,0,1,0,.4,2.22,2.22,0,0,1-.21,1,6.19,6.19,0,0,1-3.61,3.2,5.37,5.37,0,0,1-2.71.27,0.24,0.24,0,0,0-.19.09c-0.07,0-.07,0-0.06.07s-0.07,0-.06.07L232.6,521a5.85,5.85,0,0,0,2.75,1.66,4.27,4.27,0,0,0,4.42-2.16,2.58,2.58,0,0,1,2.44-1.85,10.79,10.79,0,0,0,6.15-3.79,4.63,4.63,0,0,0-.05-5.75,1.75,1.75,0,0,1-.5-0.81,1.09,1.09,0,0,1-.42-0.15,0.79,0.79,0,0,1,.84-0.78,8.53,8.53,0,0,0,3.7-3.08,13.24,13.24,0,0,0,2.08-4.75,8.83,8.83,0,0,0-.53-5.82,6.42,6.42,0,0,0-2.85-2.45c-0.22-.17-0.25-0.37-0.07-0.53a0.38,0.38,0,0,1-.45-0.41,4.87,4.87,0,0,0-.36-2.36l-0.25-.37-0.13,0a0.53,0.53,0,0,1,.1-0.82,4.52,4.52,0,0,0,.45-0.73,4.67,4.67,0,0,0,.41-2.6,3.48,3.48,0,0,0-2.51-3c-1.2-.52-2.41-1-3.6-1.49a2.62,2.62,0,0,1-1.26-1,1.8,1.8,0,0,1-.69-1.72v-0.07a4.19,4.19,0,0,0-3.58-2.43l-1.08-.07a36.44,36.44,0,0,0-3.81.08,11.59,11.59,0,0,1-3.8-.93l0.52,0.4,2.75,2.2,0.37,0.29h0Z" transform="translate(-162.18 -446.9)"/><path class="cls-7" d="M210.15,468a7.73,7.73,0,0,1-1.66,1.15,5.15,5.15,0,0,0-1.71,1.35,0.74,0.74,0,0,0,.36.22,13.17,13.17,0,0,0,2.52.82,7.34,7.34,0,0,1,3.09,1.69,5.63,5.63,0,0,1,.82,5.45,1.82,1.82,0,0,0-.61,1L213,479.8l-0.81,1a14.51,14.51,0,0,1-1.7,1.42,7.62,7.62,0,0,1-3.54,1.11,8.58,8.58,0,0,1-2.5-.22q-2.87-.44-2.77-2.87c0.06-.07,0-0.21.1-0.28a2.18,2.18,0,0,1,1.19-1.15,0.37,0.37,0,0,1,.12.45,2.41,2.41,0,0,0,.65,2.53,4,4,0,0,0,4.61-1.12,3.25,3.25,0,0,0,1.17-3.49,6.29,6.29,0,0,0-4.91-.72,10.55,10.55,0,0,1-2.25-.32,4.73,4.73,0,0,1-3.57-3.9,4.44,4.44,0,0,1,.54-2.61,6.81,6.81,0,0,1-1.66.14l-1.15-.06a0.24,0.24,0,0,1-.19.09l-0.5.26h-0.07c-0.12.08-.26,0.1-0.38,0.18a11,11,0,0,1-1.1.81c-0.68.42-1.51,0.79-2.32,1.23a9,9,0,0,1-2.32,1.23l-0.64.28a4.34,4.34,0,0,0-1.41,1,17.33,17.33,0,0,0-2.12,2.28,13.11,13.11,0,0,1-1.23.89l-0.74.49c-0.64.75-1.34,1.57-2,2.46a67.76,67.76,0,0,0-4.07,5.93,10.72,10.72,0,0,0-1.14,2.15,12.56,12.56,0,0,0-.54,2.08,9,9,0,0,0,.37,4.57l0,0.2c0.12,0.45.32,1,.45,1.42a0.4,0.4,0,0,0,.1.26l6.79-.85a14.16,14.16,0,0,1,.26-3.78,11.75,11.75,0,0,1,2.69-5.22l0.17-.22a13.82,13.82,0,0,1,4.79-3.95c0.32-.11.57-0.27,0.89-0.38a4.44,4.44,0,0,1,5.54,2.52,1.6,1.6,0,0,1,.32,1.5,13.44,13.44,0,0,1-.51,6.09,2.76,2.76,0,0,1-.18.69,3.24,3.24,0,0,1-.14.49,2,2,0,0,0-.2.56l20.89-2.62a26,26,0,0,1-1.09-5,11.33,11.33,0,0,1,2-8l1.69-.95,0.2,0a5.44,5.44,0,0,1,1.79-.16,7.35,7.35,0,0,1,4,1.65,17,17,0,0,1,3.36,3.86,14,14,0,0,1,2,4.9l0.23,1.85,9.36-1.17q0-.71,0-1.41a19.39,19.39,0,0,0-3.9-6.54,56.59,56.59,0,0,0-9.68-8.83,29.26,29.26,0,0,0-6.59-3.39,2.51,2.51,0,0,1-.67,0c-1.28,0-2.28,0-2.88,0a6.13,6.13,0,0,0-1.93.11c-0.87,0-1.66.07-2.47,0a5.86,5.86,0,0,1-3.15-1.14c-0.08-.06-0.16-0.18-0.23-0.24h0Z" transform="translate(-162.18 -446.9)"/><path class="cls-7" d="M241.51,490.68c0-.4.1-0.82,0.11-1.22l-9.36,1.17a11.71,11.71,0,0,1-1.23,5.64,10.78,10.78,0,0,1-4.64,4.6,12.56,12.56,0,0,1-2.45-.83,9.07,9.07,0,0,1-5.19-5.64,9.36,9.36,0,0,1-.43-1.28,2.35,2.35,0,0,1-.22-0.71L197.21,495c-0.16.35-.26,0.63-0.41,1l-0.47,1.06c-0.16.36-.37,0.78-0.52,1.2a4.24,4.24,0,0,0-.56.87l-0.1.28a16.1,16.1,0,0,1-3.46,3.92,3.84,3.84,0,0,1-1.45.72c-0.24-.31-0.2-0.51.18-0.69a3.25,3.25,0,0,1,.44-0.26,5.28,5.28,0,0,1-3.65-.28,3.26,3.26,0,0,1-1.3-.77,6,6,0,0,1-2.23-4.47l-0.11-.86-6.79.85c0.12,0.39.3,0.77,0.41,1.15a33.19,33.19,0,0,0,1.58,3.48,5.15,5.15,0,0,0,.45.88,6.51,6.51,0,0,0,.91,1.42c0.55,0.67,1.11,1.4,1.6,2.08a14.36,14.36,0,0,1,.9,1.29,6.81,6.81,0,0,1,.59.93l0.25,0.37c0.07,0.06.09,0.19,0.17,0.25l0.53-.07a1,1,0,0,1,.32-0.64,1.39,1.39,0,0,1,.48-0.46l0.13,0a0.77,0.77,0,0,1,.64-0.21,2.18,2.18,0,0,1,1.19,1l44.95-5.64c0-.07,0-0.07.06-0.07a0.34,0.34,0,0,0-.31-0.3c-0.3-.23-0.26-0.44,0-0.68a0.56,0.56,0,0,1,.38-0.18c0.12-.08.25-0.1,0.38-0.18a1.25,1.25,0,0,1,1.35,1.1c-0.07,0-.07,0-0.06.07l4.35-.55c0.36-.85.73-1.7,1-2.54,0.39-1.19.71-2.3,1-3.48,0.16-.35.24-0.77,0.4-1.12a29.7,29.7,0,0,0,1-4.81h0Zm-32.38,7.08a3.41,3.41,0,0,0-2.72-.86c-0.39.12-.72,0.16-1,0.26a0.8,0.8,0,0,1,.43-0.32,3.11,3.11,0,0,1,2.66-.13,2.12,2.12,0,0,1,1.29,1.24c-0.18.16-.39,0.12-0.63-0.19h0Zm-6.22,1.12a2.62,2.62,0,0,1,1.22-1c0.06-.07.12-0.08,0.18-0.16a4.8,4.8,0,0,1,4.66.82,1.3,1.3,0,0,1,.76,1.24,1.81,1.81,0,0,1-1.12-.39,4.14,4.14,0,0,0-3-1.09,3.31,3.31,0,0,0-1.56.4,2.76,2.76,0,0,0-.67.55,5.86,5.86,0,0,0-.44.73,3.25,3.25,0,0,0-.33,1.65l0,0.13,0.43-.86a5.21,5.21,0,0,1,2.12.87q4.14-.62,4.25.27c0.19,1.52-.64,2.36-2.42,2.58a4.72,4.72,0,0,1-2.78-.25,4.25,4.25,0,0,0,2.31.78,3.42,3.42,0,0,0,2.34-1.1c0.58-.21.73,0,0.55,0.6a3.61,3.61,0,0,1-1.79,1.23,4.45,4.45,0,0,1-3.92-.78l-0.16-.18c-0.05.14-.19,0.09-0.35-0.09A6.1,6.1,0,0,1,202,502.6a3.62,3.62,0,0,1,.88-3.66v-0.07h0Zm4.75,1c0.07,0.59-.36.92-1.21,1-1.45.18-2.23-.19-2.34-1q-0.1-.79,1.29-1c1.38-.17,2.16.13,2.27,1h0Z" transform="translate(-162.18 -446.9)"/><path class="cls-7" d="M193,516.26a16,16,0,0,0,1.49.68c1.48,0.62,3,1.16,4.56,1.64,0.49,0.14,1,.27,1.59.4a16.08,16.08,0,0,0,4.73.34c1.26-.09,2.58-0.26,3.83-0.41l2.88-.56,2.22-.48a14.72,14.72,0,0,1,1.81-1,0.39,0.39,0,0,0,.25-0.1,24.29,24.29,0,0,1,2.88-1.1,3.35,3.35,0,0,1,.84-0.24l0.25-.1a0.13,0.13,0,0,1,.12-0.08l0.13,0a12.54,12.54,0,0,1,1.56-.93,35.91,35.91,0,0,0,4.69-3.67,20.71,20.71,0,0,0,2.07-2.2,19,19,0,0,0,2.59-3.87,7.69,7.69,0,0,1,.4-1.12l-44.95,5.64a2.09,2.09,0,0,1,.21,1.11,2,2,0,0,1-.58.68c0.42,0.68.91,1.36,1.33,2a13.27,13.27,0,0,0,.89,1.23c0.36,0.16.72,0.38,1.07,0.54l3.15,1.61h0Z" transform="translate(-162.18 -446.9)"/><path class="cls-7" d="M184.15,509.4l-0.53.07a2.67,2.67,0,0,0,.4.55,0.94,0.94,0,0,1,.08-0.41,0.24,0.24,0,0,1,0-.21h0Z" transform="translate(-162.18 -446.9)"/><path class="cls-7" d="M237,504.5c0.39-.65.72-1.23,1-1.87l-4.35.55a0.22,0.22,0,0,0,.1.26c0.26,0.5.17,0.78-.36,0.85a0.43,0.43,0,0,0-.4,0,0.77,0.77,0,0,1-.48-0.07,24.85,24.85,0,0,1-2.62,4.15,25.8,25.8,0,0,1-3.87,3.83c-1,.73-2,1.46-3.08,2.13l-0.06.07c0.82-.37,1.58-0.73,2.41-1l1.64-.81a39.87,39.87,0,0,0,4.38-2.42,16.45,16.45,0,0,0,4.06-3.39l0.92-1.19L237,504.5h0Z" transform="translate(-162.18 -446.9)"/><path class="cls-10" d="M222.7,478.39a5.44,5.44,0,0,0-1.79.16l-0.2,0-1.69.95a11.33,11.33,0,0,0-2,8,28.39,28.39,0,0,0,1.31,5.66,9.36,9.36,0,0,0,.43,1.28,9.07,9.07,0,0,0,5.19,5.64,12.56,12.56,0,0,0,2.45.83,10.78,10.78,0,0,0,4.64-4.6,12.1,12.1,0,0,0,1-7.49,14,14,0,0,0-2-4.9,17,17,0,0,0-3.36-3.86,7.35,7.35,0,0,0-4-1.65h0Zm-4.61,11.29-0.12-.92a12.46,12.46,0,0,1,.32-5.46,6.23,6.23,0,0,1,3.65-4.54A11.27,11.27,0,0,1,224.5,480a14.39,14.39,0,0,1,2.74,2.13,13.61,13.61,0,0,1,3.86,7.28,12.55,12.55,0,0,1-.4,5.87,7.61,7.61,0,0,1-4.54,4.92,7.1,7.1,0,0,1-1.31-.3,6.58,6.58,0,0,1-3.64-2.35l-1.4-2.57c-0.26-.5-0.46-1-0.65-1.46A1.32,1.32,0,0,1,219,493c-0.11-.32-0.23-0.71-0.33-1l-0.1-.26-0.53-2.08h0Z" transform="translate(-162.18 -446.9)"/><path class="cls-11" d="M224.5,480c0.25,0.37.5,0.74,0.75,1.18,0.37,0.76.66,1.52,1,2.29a1.44,1.44,0,0,1,.13.52,8.87,8.87,0,0,1,0,1.87,0.83,0.83,0,0,0,0,.4,12.17,12.17,0,0,1-.18,2.3l-0.15.42a4.33,4.33,0,0,1-1.8,2.7,7.59,7.59,0,0,1-.15,4.1,2.52,2.52,0,0,1-2.8,1.69l-0.06.07a6.58,6.58,0,0,0,3.64,2.35,7.1,7.1,0,0,0,1.31.3,7.61,7.61,0,0,0,4.54-4.92,12.55,12.55,0,0,0,.4-5.87,13.61,13.61,0,0,0-3.86-7.28A14.39,14.39,0,0,0,224.5,480h0Z" transform="translate(-162.18 -446.9)"/><path class="cls-12" d="M225.25,481.15c-0.25-.44-0.5-0.81-0.75-1.18a11.27,11.27,0,0,0-2.56-1.22,6.23,6.23,0,0,0-3.65,4.54,12.46,12.46,0,0,0-.32,5.46l0.12,0.92,0.06-.07,0.32-.64a3.61,3.61,0,0,1,.57-0.81,1.53,1.53,0,0,0,.3-0.24,2.87,2.87,0,0,1,2.35.11,7.29,7.29,0,0,1,2.53,3.63,4.33,4.33,0,0,0,1.8-2.7l0.15-.42a12.17,12.17,0,0,0,.18-2.3,0.83,0.83,0,0,1,0-.4,8.87,8.87,0,0,0,0-1.87,1.44,1.44,0,0,0-.13-0.52c-0.3-.77-0.59-1.53-1-2.29h0Z" transform="translate(-162.18 -446.9)"/><path class="cls-13" d="M218.15,489.6l-0.06.07,0.53,2.08a1.66,1.66,0,0,0,.49.14c2.3-.36,3-1.39,2.09-3.07a5.56,5.56,0,0,0-.86-0.43,2.11,2.11,0,0,1,1.31.3,6.48,6.48,0,0,1,1.91,3.44,7,7,0,0,1,0,2.81c-0.4,1.59-1.34,2.11-2.69,1.48a6.15,6.15,0,0,1-1.06-1.47l1.4,2.57,0.06-.07a2.52,2.52,0,0,0,2.8-1.69,7.59,7.59,0,0,0,.15-4.1A7.29,7.29,0,0,0,221.7,488a2.87,2.87,0,0,0-2.35-.11,1.53,1.53,0,0,1-.3.24,3.61,3.61,0,0,0-.57.81l-0.32.64h0Zm0.53,0.47,0.11-.21a1.49,1.49,0,0,1,.29-0.91l0.14,0a3.19,3.19,0,0,1,.8,0c1,0.2,1.36.7,0.87,1.57a1.85,1.85,0,0,1-2.13.6,2.54,2.54,0,0,1-.06-1.06h0Z" transform="translate(-162.18 -446.9)"/><path class="cls-12" d="M218.78,489.86l-0.11.21a2.54,2.54,0,0,0,.06,1.06,1.84,1.84,0,0,0,2.13-.6c0.49-.87.16-1.36-0.87-1.57a3.19,3.19,0,0,0-.8,0l-0.14,0a1.49,1.49,0,0,0-.29.91h0Z" transform="translate(-162.18 -446.9)"/><path class="cls-14" d="M220.34,488.39a5.56,5.56,0,0,1,.86.43c0.95,1.69.21,2.72-2.09,3.07a1.66,1.66,0,0,1-.49-0.14l0.1,0.26c0.11,0.32.22,0.71,0.33,1a1.32,1.32,0,0,0,.12.45l0.13,0a12.23,12.23,0,0,0,2.2-.07,3.3,3.3,0,0,0,.82-0.37c0.19-.09.3-0.24,0.49-0.33a1.56,1.56,0,0,0,.3-0.24,3.81,3.81,0,0,1,.43-0.32,6.48,6.48,0,0,0-1.91-3.44,2.11,2.11,0,0,0-1.31-.3h0Z" transform="translate(-162.18 -446.9)"/><path class="cls-15" d="M223.55,492.14a3.81,3.81,0,0,0-.43.32,1.56,1.56,0,0,1-.3.24c-0.19.09-.31,0.24-0.49,0.33a3.3,3.3,0,0,1-.82.37,12.23,12.23,0,0,1-2.2.07l-0.13,0c0.19,0.45.39,1,.65,1.46a6.15,6.15,0,0,0,1.06,1.47c1.35,0.63,2.29.11,2.69-1.48a7,7,0,0,0,0-2.81h0Z" transform="translate(-162.18 -446.9)"/><path class="cls-10" d="M183.83,493a15,15,0,0,0-.15,4.64,6,6,0,0,0,2.23,4.47,3.26,3.26,0,0,0,1.3.77,5.28,5.28,0,0,0,3.65.28,3.25,3.25,0,0,0-.44.26c-0.38.18-.42,0.39-0.18,0.69a3.84,3.84,0,0,0,1.45-.72,16.1,16.1,0,0,0,3.46-3.92l0.1-.28a4.24,4.24,0,0,1,.56-0.87c0.15-.42.36-0.85,0.52-1.2L196.8,496c0.16-.35.25-0.63,0.41-1a2,2,0,0,1,.2-0.56,3.24,3.24,0,0,0,.14-0.49,2.76,2.76,0,0,0,.18-0.69,13.44,13.44,0,0,0,.51-6.09,1.6,1.6,0,0,0-.32-1.5,4.44,4.44,0,0,0-5.54-2.52c-0.32.11-.57,0.27-0.89,0.38a13.82,13.82,0,0,0-4.79,3.95l-0.17.22a11.75,11.75,0,0,0-2.69,5.22h0Zm8.32-8.94a3.7,3.7,0,0,1,2.66-.13,3.51,3.51,0,0,1,1.94,1.56,14.38,14.38,0,0,1,.77,1.31l0,0.33a10.21,10.21,0,0,1,.1,3.47,34.47,34.47,0,0,1-.77,3.51c-0.16.35-.25,0.63-0.35,0.91l0,0.14c-0.15.42-.36,0.85-0.52,1.2-0.06.07-.11,0.21-0.16,0.29v0.07a19.07,19.07,0,0,1-2.21,3.76h0.07c-0.17.22-.35,0.38-0.53,0.6,0.23-.3.41-0.45,0.47-0.53h-0.13c-0.3.24-.84,0.77-1.75,1.49a5.53,5.53,0,0,1-5,.09,0.51,0.51,0,0,0-.17-0.25,4.54,4.54,0,0,1-2-3.1,12,12,0,0,1,1-8.43c0.27-.5.61-1,0.95-1.53a5.34,5.34,0,0,1,.75-1,16.06,16.06,0,0,1,3.74-3.28,3.18,3.18,0,0,1,1.14-.54h0Z" transform="translate(-162.18 -446.9)"/><path class="cls-12" d="M194.8,483.9a3.7,3.7,0,0,0-2.66.13,3.18,3.18,0,0,0-1.14.54,16.06,16.06,0,0,0-3.74,3.28,5.34,5.34,0,0,0-.75,1c0,0.34-.12.62-0.16,0.89a17,17,0,0,0,0,1.94c0,0.34,0,.6,0,0.87a2.62,2.62,0,0,0,1.11,2.47,0.8,0.8,0,0,1,.37.29,2.76,2.76,0,0,0,.55.67,4.16,4.16,0,0,1,.23-0.83c0.11-.21.21-0.49,0.31-0.71a5,5,0,0,1,2.51-2.93,2.89,2.89,0,0,1,2-.38,3.91,3.91,0,0,1,2.78,2.4,4.45,4.45,0,0,1,.39,1.49c0.1-.28.2-0.56,0.35-0.91a34.47,34.47,0,0,0,.77-3.51,10.21,10.21,0,0,0-.1-3.47l0-.33a14.38,14.38,0,0,0-.77-1.31,3.51,3.51,0,0,0-1.94-1.56h0Z" transform="translate(-162.18 -446.9)"/><path class="cls-13" d="M193.19,491.87a1.28,1.28,0,0,1,.68.11,3.61,3.61,0,0,1,2.05,4.09l0,0.26c0.16-.35.37-0.78,0.52-1.2l0-.14a4.45,4.45,0,0,0-.39-1.49,3.91,3.91,0,0,0-2.78-2.4,2.9,2.9,0,0,0-2,.38,5,5,0,0,0-2.51,2.93c-0.11.21-.2,0.49-0.31,0.71a4.16,4.16,0,0,0-.23.83,6.45,6.45,0,0,0,.67,4.8,3.67,3.67,0,0,0,2.7,1.27c0.91-.72,1.45-1.25,1.75-1.49h0.07a3.16,3.16,0,0,0-1.12.68,2.58,2.58,0,0,1-3.25-1.87,8.06,8.06,0,0,1-.09-2.87,7.1,7.1,0,0,1,.62-2,1.52,1.52,0,0,0,.16-0.35,1.61,1.61,0,0,0,.71.85q2.72,0.86,3.19-1.81a3.48,3.48,0,0,0-.56-1.27h0Zm-0.94,0a0.54,0.54,0,0,0,.37.29,1.28,1.28,0,0,1-.06,2.15c-1.39.64-2.1,0.33-2.12-.87a0.79,0.79,0,0,1,.4-0.52c0.06-.07.12-0.15,0-0.21a3.24,3.24,0,0,1,1.37-.84h0Z" transform="translate(-162.18 -446.9)"/><path class="cls-12" d="M192.62,492.14a0.54,0.54,0,0,1-.37-0.29,3.24,3.24,0,0,0-1.37.84c0.07,0.06,0,.13,0,0.21a0.79,0.79,0,0,0-.4.52c0,1.2.73,1.52,2.12,0.87a1.28,1.28,0,0,0,.06-2.15h0Z" transform="translate(-162.18 -446.9)"/><path class="cls-14" d="M193.88,492a1.28,1.28,0,0,0-.68-0.11,3.48,3.48,0,0,1,.56,1.27q-0.47,2.67-3.19,1.81a1.6,1.6,0,0,1-.71-0.85,1.52,1.52,0,0,1-.16.35,7.1,7.1,0,0,0-.62,2c0.21,0,.35.16,0.56,0.2l1.26,0.44c0.21,0,.35.16,0.56,0.2l0.55,0.13c0.27,0,.54.07,0.75,0.11a3.55,3.55,0,0,0,2.16-.4,2.37,2.37,0,0,0,.69-0.36,0.24,0.24,0,0,1,.19-0.09v-0.07c0.06-.07.11-0.22,0.16-0.29l0-.26a3.61,3.61,0,0,0-2.05-4.09h0Z" transform="translate(-162.18 -446.9)"/><path class="cls-11" d="M186.52,488.82c-0.34.51-.67,1-0.95,1.53a12,12,0,0,0-1,8.43,4.54,4.54,0,0,0,2,3.1,0.51,0.51,0,0,1,.17.25,5.53,5.53,0,0,0,5-.09,3.67,3.67,0,0,1-2.7-1.27,6.45,6.45,0,0,1-.67-4.8,2.76,2.76,0,0,1-.55-0.67,0.8,0.8,0,0,0-.37-0.29,2.62,2.62,0,0,1-1.11-2.47c0-.27,0-0.53,0-0.87a17,17,0,0,1,0-1.94c0-.27.13-0.55,0.16-0.89h0Z" transform="translate(-162.18 -446.9)"/><path class="cls-15" d="M191.46,497.3c-0.21,0-.35-0.16-0.56-0.2l-1.26-.44c-0.21,0-.36-0.16-0.56-0.2a8.06,8.06,0,0,0,.09,2.87,2.58,2.58,0,0,0,3.25,1.87,3.16,3.16,0,0,1,1.12-.68h0.07v-0.07a19.1,19.1,0,0,0,2.21-3.76,0.24,0.24,0,0,0-.19.09,2.37,2.37,0,0,1-.69.36,3.55,3.55,0,0,1-2.16.4c-0.21,0-.48-0.07-0.75-0.11l-0.55-.13h0Z" transform="translate(-162.18 -446.9)"/><path class="cls-16" d="M193.61,500.52c-0.06.07-.24,0.23-0.47,0.53,0.17-.22.35-0.38,0.53-0.6H193.6v0.07h0Z" transform="translate(-162.18 -446.9)"/><path class="cls-8" d="M204.13,497.92a2.62,2.62,0,0,0-1.22,1v0.07a3.62,3.62,0,0,0-.88,3.66,6.1,6.1,0,0,0,1.16,2.26c0.16,0.18.3,0.23,0.35,0.09l0.16,0.18a4.45,4.45,0,0,0,3.91.78,3.61,3.61,0,0,0,1.79-1.23c0.19-.63,0-0.81-0.55-0.6a3.42,3.42,0,0,1-2.34,1.1,4.25,4.25,0,0,1-2.31-.78,1.29,1.29,0,0,1-.76-0.71,5.71,5.71,0,0,1-.6-1.06l-0.1-.26a1.31,1.31,0,0,1-.12-0.45l0-.13,0-.13a3.25,3.25,0,0,1,.33-1.65,5.86,5.86,0,0,1,.44-0.73,2.76,2.76,0,0,1,.67-0.55,3.31,3.31,0,0,1,1.56-.4,4.14,4.14,0,0,1,3,1.09,1.81,1.81,0,0,0,1.12.39,1.3,1.3,0,0,0-.76-1.24,4.8,4.8,0,0,0-4.66-.82c-0.06.07-.12,0.08-0.18,0.16h0Z" transform="translate(-162.18 -446.9)"/><path class="cls-9" d="M207,504.66c1.78-.22,2.61-1.06,2.42-2.58q-0.11-.89-4.25-0.27a5.21,5.21,0,0,0-2.12-.87l-0.43.86,0,0.13a1.31,1.31,0,0,0,.12.45l0.1,0.26a5.71,5.71,0,0,0,.6,1.06,1.29,1.29,0,0,0,.76.71,4.72,4.72,0,0,0,2.78.25h0Z" transform="translate(-162.18 -446.9)"/><path class="cls-17" d="M207.66,499.89c-0.11-.86-0.88-1.16-2.27-1q-1.38.17-1.29,1c0.11,0.86.89,1.23,2.34,1,0.86-.11,1.29-0.43,1.21-1h0Z" transform="translate(-162.18 -446.9)"/><path class="cls-8" d="M205.8,496.84a0.8,0.8,0,0,0-.43.32c0.32-.11.65-0.15,1-0.26a3.41,3.41,0,0,1,2.72.86c0.24,0.3.44,0.35,0.63,0.19a2.12,2.12,0,0,0-1.29-1.24,3.11,3.11,0,0,0-2.66.13h0Z" transform="translate(-162.18 -446.9)"/><path class="cls-4" d="M246.36,486.13a2.31,2.31,0,0,0-1.15-1.19,3.16,3.16,0,0,0-1.44-.29,9.13,9.13,0,0,1-2.79-.32,7,7,0,0,0,.42.68c0.77,1.31,1.54,2.62,2.25,4l0.62,0.12a10.28,10.28,0,0,1,3.71,1.27,6,6,0,0,0-.93-3.16,4.91,4.91,0,0,1-.68-1.12h0Z" transform="translate(-162.18 -446.9)"/><path class="cls-9" d="M241.65,488.06a17.47,17.47,0,0,1-.14,2.63,29.7,29.7,0,0,1-1,4.81c-0.16.35-.24,0.77-0.4,1.12-0.32,1.18-.65,2.29-1,3.48A23.77,23.77,0,0,1,237,504.5l-0.67,1.09-0.92,1.19a16.45,16.45,0,0,1-4.06,3.39,39.87,39.87,0,0,1-4.38,2.42l-1.64.81c-0.83.31-1.59,0.67-2.41,1s-1.44.78-2.13,1.2c-0.06.08-.05,0.14-0.11,0.21a21.1,21.1,0,0,1-2.44,3,8.7,8.7,0,0,1-4.42,2.63,14.48,14.48,0,0,0-1.7.28,5.82,5.82,0,0,1-2.53.65,0.3,0.3,0,0,0-.33,0l-0.53.07c-0.72.16-1,0-.92-0.42a1,1,0,0,1,.44-0.19l1.69-.41a5.85,5.85,0,0,0,2-1.46c0.17-.22.22-0.36,0.15-0.42-0.71.22-1.49,0.39-2.21,0.54a27.85,27.85,0,0,1-3.29.48,22.94,22.94,0,0,1-3,0,20.86,20.86,0,0,1-3-.36,5.17,5.17,0,0,0-1-.21,4.46,4.46,0,0,0-.55-0.13c-0.49-.14-1-0.21-1.45-0.35a6.91,6.91,0,0,1-.69-0.18,6.37,6.37,0,0,1-.77-0.24c-0.77-.24-1.47-0.49-2.24-0.79s-1.7-.72-2.55-1.15a11.85,11.85,0,0,1-2.35-1.65,18.63,18.63,0,0,1-1.52-2,0.13,0.13,0,0,1-.08-0.12,7.93,7.93,0,0,1-.88-0.63l-0.15-.12c-0.22-.17-0.38-0.35-0.6-0.53l-0.54-.6-0.08-.12c-0.16-.18-0.3-0.3-0.46-0.48s-0.22-.11-0.29-0.16a1.4,1.4,0,0,1-.42-0.68V510a3.61,3.61,0,0,1-.57-0.8l-0.25-.37a6.81,6.81,0,0,0-.59-0.93,14.26,14.26,0,0,0-.9-1.29c-0.49-.68-1-1.41-1.6-2.08a6.51,6.51,0,0,1-.91-1.42,5.15,5.15,0,0,1-.45-0.88,33.19,33.19,0,0,1-1.58-3.48,11.42,11.42,0,0,1-.51-1.41c-0.12-.45-0.32-1-0.45-1.42l0-.2a9,9,0,0,1-.37-4.57,12.56,12.56,0,0,1,.54-2.08,18,18,0,0,0-1.75,6.85,27.3,27.3,0,0,0,.25,6.8,0.55,0.55,0,0,0,.06.46,30.46,30.46,0,0,0,1.36,5.52,23.89,23.89,0,0,0,2.89,5.93,22,22,0,0,0,3.13,3.62c0.83,0.77,1.73,1.52,2.56,2.22s2,1.42,2.93,2a33.65,33.65,0,0,0,6.27,3,64.06,64.06,0,0,0,7.88,2,8.14,8.14,0,0,1,1.23.18c1.29,0.17,2.59.35,3.95,0.51a24.85,24.85,0,0,0,4.43,0,32.69,32.69,0,0,0,4.37-.88,67.41,67.41,0,0,0,8.27-2.91,10.2,10.2,0,0,0,1.08-.47c1-.46,2-1,3-1.52a33.22,33.22,0,0,0,10.35-9.27c3.15-4.21,4.62-9.55,4.53-16.17a29,29,0,0,0-1.53-9h0Zm-32.84,34.85c0.26,0,1.11-.21,2.48-0.51,1.65-.21,2.44-0.24,2.33-0.09a0.6,0.6,0,0,0,.49-0.33,1.84,1.84,0,0,1,1,.87L214,524.4a6.43,6.43,0,0,1-2.61,1.06c-2.44.31-3.7-.14-3.85-1.32-0.09-.73.33-1.11,1.25-1.23h0Z" transform="translate(-162.18 -446.9)"/><path class="cls-7" d="M211.29,522.4c-1.37.31-2.22,0.48-2.48,0.51-0.92.12-1.34,0.5-1.25,1.23,0.15,1.19,1.41,1.63,3.85,1.32A6.43,6.43,0,0,0,214,524.4l1.14-1.55a1.84,1.84,0,0,0-1-.87,0.6,0.6,0,0,1-.49.33c0.11-.15-0.68-0.12-2.33.09h0Z" transform="translate(-162.18 -446.9)"/><path class="cls-4" d="M171.28,488a0.66,0.66,0,0,1-.22.36,3.75,3.75,0,0,0,.92.42l0.13,0a6,6,0,0,0-1.62,2,5.65,5.65,0,0,1-.77,1.3,9.1,9.1,0,0,0-1.39,3.86,2.87,2.87,0,0,0,.07,1.06c0.11,0.32.21,0.58,0.3,0.83a7.28,7.28,0,0,1,1.7-1.35,10.64,10.64,0,0,1,2.68-1.07,17,17,0,0,1,.62-2c0.29-.91.64-1.82,1-2.74a40.54,40.54,0,0,1,4.12-7.68,7.61,7.61,0,0,0-2.44.31c-0.32.11-.63,0.28-1,0.39a7.65,7.65,0,0,0-2.66,1.74c-0.17.22-.28,0.44-0.45,0.66-0.39.65-.71,1.29-1,1.94h0Z" transform="translate(-162.18 -446.9)"/><path class="cls-5" d="M171.06,488.35a0.66,0.66,0,0,0,.22-0.36c0.32-.64.64-1.29,1-1.94,0.17-.22.28-0.44,0.45-0.66a7.65,7.65,0,0,1,2.66-1.74c0.32-.11.64-0.28,1-0.39a7.61,7.61,0,0,1,2.44-.31,10.13,10.13,0,0,1,1-1.39,14.11,14.11,0,0,1,1.73-2.23l-1.06.13a31.84,31.84,0,0,0-5,.76,25.53,25.53,0,0,0-5.31,1.94,7.56,7.56,0,0,0-2.12,1.27,6,6,0,0,0-2.47,3.79,3.56,3.56,0,0,1-.3,1.31l-0.16-.18,0,0.26a6.78,6.78,0,0,0,1.4,3.71c0.53,0.54.58,0.86,0.26,1a0.53,0.53,0,0,1-.54.54,5.19,5.19,0,0,0-3.36,4.71,3.05,3.05,0,0,0,1.58,3c0.31,0.3.26,0.5-.06,0.61l0,0.33a11.13,11.13,0,0,0,.12,4.67,3.84,3.84,0,0,0,4.06,3.51,0.57,0.57,0,0,1,.9.22,0.37,0.37,0,0,1-.21.43l-0.12.08a3.22,3.22,0,0,0-.81,1.57,7.2,7.2,0,0,0,3.39,7.27,1.93,1.93,0,0,0,1.49.15c0.47,0,.63.26,0.41,0.62l0.09,0.19a12.71,12.71,0,0,0,.89,3.37c1,1.94,2.67,2.61,4.94,2a6,6,0,0,1,1.51-.26,2.43,2.43,0,0,1,.68,1.19,7.67,7.67,0,0,0,5.33,4.08,5.57,5.57,0,0,0,2.11.27,7.71,7.71,0,0,0,2.92-.77l0.26-.1a2,2,0,0,1,.4-0.59,15.82,15.82,0,0,1,1.83-1.43l0.91-.72-0.46.06a7.46,7.46,0,0,0-1.1.27,2.93,2.93,0,0,1-2.68,0,8.47,8.47,0,0,0-1.41-.56,12.13,12.13,0,0,0-1.71-.32,3.62,3.62,0,0,1-2.32-.91,7.81,7.81,0,0,1-1.23-1.25,3.34,3.34,0,0,1-.79-1.51,18,18,0,0,0-.56-1.8,0.5,0.5,0,0,1-.45.12,4,4,0,0,1-1.3-.24,17.44,17.44,0,0,1-3.44-1.84,11.7,11.7,0,0,1-1.95-1.63,9.12,9.12,0,0,1-1.12-1.47,6.77,6.77,0,0,1-.8-4.79,7.75,7.75,0,0,1-1.66-.39,9.5,9.5,0,0,1-3.32-2.46,8.33,8.33,0,0,1-1.77-3.46c-0.1-.26-0.13-0.52-0.23-0.77l0-.13a2.94,2.94,0,0,1-.16-0.72l-0.1-.79a3.46,3.46,0,0,1,0-.86l0-.26c0-.34.06-0.61,0.09-0.88l0-.2a3.31,3.31,0,0,1,.26-1.17v-0.07a5.89,5.89,0,0,1,1.5-2.46c-0.1-.26-0.2-0.51-0.3-0.83a2.87,2.87,0,0,1-.07-1.06,9.1,9.1,0,0,1,1.39-3.86,5.65,5.65,0,0,0,.77-1.3,6,6,0,0,1,1.62-2l-0.13,0a3.75,3.75,0,0,1-.92-0.42h0Z" transform="translate(-162.18 -446.9)"/><path class="cls-8" d="M186.54,510.84a2,2,0,0,0,.58-0.68,1.9,1.9,0,0,0-1.4-2.1,0.77,0.77,0,0,0-.64.21l-0.13,0a1.39,1.39,0,0,0-.48.46,1.23,1.23,0,0,0-.36.85,0.94,0.94,0,0,0-.08.41v0.07a1.4,1.4,0,0,0,.42.68c0.07,0.06.21,0.11,0.29,0.16h0.07A1.52,1.52,0,0,0,186,511c0.42,0.68.83,1.3,1.25,2a3.28,3.28,0,0,1,.26.44,0.13,0.13,0,0,0,.08.12,18.63,18.63,0,0,0,1.52,2,11.85,11.85,0,0,0,2.35,1.65c0.86,0.43,1.7.79,2.55,1.15s1.47,0.55,2.24.79a6.37,6.37,0,0,0,.77.24,6.91,6.91,0,0,0,.69.18c0.49,0.14,1,.21,1.45.35a4.46,4.46,0,0,1,.55.13,5.17,5.17,0,0,1,1,.21,20.86,20.86,0,0,0,3,.36,22.94,22.94,0,0,0,3,0,27.85,27.85,0,0,0,3.29-.48c0.72-.16,1.5-0.32,2.21-0.54,0.08,0.06,0,.2-0.15.42a5.85,5.85,0,0,1-2,1.46l-1.69.41a1,1,0,0,0-.44.19c-0.08.41,0.21,0.58,0.92,0.42l0.53-.07a0.3,0.3,0,0,1,.33,0,5.82,5.82,0,0,0,2.53-.65,14.48,14.48,0,0,1,1.7-.28,8.7,8.7,0,0,0,4.42-2.63,21.1,21.1,0,0,0,2.44-3c0.06-.07,0-0.14.11-0.21,0.68-.42,1.44-0.78,2.13-1.2l0.06-.07c1.05-.67,2.1-1.4,3.08-2.13a25.8,25.8,0,0,0,3.87-3.83,24.85,24.85,0,0,0,2.62-4.15,0.77,0.77,0,0,0,.48.07,0.43,0.43,0,0,1,.4,0c0.53-.07.63-0.35,0.36-0.85a0.29,0.29,0,0,1,0-.33,1.25,1.25,0,0,0-1.35-1.1c-0.12.08-.25,0.1-0.38,0.18a0.56,0.56,0,0,0-.38.18c-0.31.24-.35,0.44,0,0.68a0.34,0.34,0,0,1,.31.3c-0.16.35-.3,0.77-0.45,1.2a19,19,0,0,1-2.59,3.87,20.71,20.71,0,0,1-2.07,2.2,35.91,35.91,0,0,1-4.69,3.67,12.54,12.54,0,0,0-1.56.93l-0.13,0a0.13,0.13,0,0,0-.12.08l-0.25.1a3.35,3.35,0,0,0-.84.24,24.29,24.29,0,0,0-2.88,1.1,0.39,0.39,0,0,1-.25.1,14.72,14.72,0,0,0-1.81,1c-0.25.16-.49,0.4-0.79,0.63a2.24,2.24,0,0,0-1,.39l-0.26,0c-0.25.1-.44,0.19-0.63,0.28a17.91,17.91,0,0,1-5.25.86,21.37,21.37,0,0,1-4.17-.15c-0.82-.1-1.64-0.26-2.46-0.43a5.88,5.88,0,0,1-1.19-.39c-0.49-.14-0.9-0.22-1.31-0.3-1.9-.7-3.67-1.48-5.45-2.33-0.35-.16-0.64-0.32-1-0.48a11.27,11.27,0,0,1-1.41-1.1,9.81,9.81,0,0,0-.64-0.79,13.27,13.27,0,0,1-.89-1.23c-0.42-.68-0.91-1.36-1.33-2h0Z" transform="translate(-162.18 -446.9)"/><path class="cls-7" d="M187.46,513.41a3.28,3.28,0,0,0-.26-0.44c-0.42-.68-0.83-1.3-1.25-2a1.52,1.52,0,0,1-1.15-.06h-0.07c0.16,0.18.3,0.3,0.46,0.48l0.08,0.12,0.54,0.6c0.22,0.17.38,0.35,0.6,0.53l0.15,0.12a7.93,7.93,0,0,0,.88.63h0Z" transform="translate(-162.18 -446.9)"/><path class="cls-9" d="M189.83,514.65c-0.35-.16-0.72-0.38-1.07-0.54a9.81,9.81,0,0,1,.64.79,11.27,11.27,0,0,0,1.41,1.1c0.35,0.16.64,0.32,1,.48,1.78,0.85,3.55,1.63,5.45,2.33,0.41,0.08.82,0.16,1.31,0.3a5.88,5.88,0,0,0,1.19.39c0.82,0.16,1.65.33,2.46,0.43a21.37,21.37,0,0,0,4.17.15,17.91,17.91,0,0,0,5.25-.86c0.19-.09.38-0.18,0.63-0.28l0.26,0a2.24,2.24,0,0,1,1-.39c0.31-.24.55-0.47,0.79-0.63l-2.22.48-2.88.56c-1.25.16-2.57,0.32-3.83,0.41a16.08,16.08,0,0,1-4.73-.34c-0.55-.13-1.1-0.26-1.59-0.4-1.53-.48-3.07-1-4.56-1.64a16,16,0,0,1-1.49-.68l-3.15-1.61h0Z" transform="translate(-162.18 -446.9)"/><path class="cls-4" d="M194,528.65a7.46,7.46,0,0,1,1.1-.27l0.46-.06c0.06-.07.18-0.16,0.24-0.23a0.41,0.41,0,0,1,.32-0.11,1.84,1.84,0,0,1,.59-0.14,0.83,0.83,0,0,1,.39-0.12c-1.19-.39-2.38-0.84-3.71-1.27a46.55,46.55,0,0,1-5.41-2.53c-1-.61-2-1.23-2.92-1.91a35.52,35.52,0,0,1-7.26-7.19c-0.56-.73-1.06-1.47-1.56-2.28a8.91,8.91,0,0,1-2-.08,6.77,6.77,0,0,0,.8,4.79,9.12,9.12,0,0,0,1.12,1.47,11.7,11.7,0,0,0,1.95,1.63,17.44,17.44,0,0,0,3.44,1.84,4,4,0,0,0,1.3.24,0.5,0.5,0,0,0,.45-0.12,18,18,0,0,1,.56,1.8,3.33,3.33,0,0,0,.79,1.51,7.74,7.74,0,0,0,1.23,1.25,3.62,3.62,0,0,0,2.32.91,12.13,12.13,0,0,1,1.71.32,8.47,8.47,0,0,1,1.41.56,2.93,2.93,0,0,0,2.68,0h0Z" transform="translate(-162.18 -446.9)"/><path class="cls-18" d="M225.5,525.23a8,8,0,0,1,2.3.71,17.59,17.59,0,0,1,5,2.92,55.22,55.22,0,0,1,10.94,17.3c0.79,1.51,1.58,3,2.38,4.59s1.77,3.46,2.59,5.16a0.4,0.4,0,0,0,.1.26c0.63,1.26,1.25,2.52,1.75,3.8,0.07,0.06.09,0.19,0.16,0.25l1.19-.15-2-4.37c-0.8-1.57-1.61-3.21-2.41-4.79-0.1-.26-0.26-0.5-0.36-0.76-1.85-3.58-3.7-7.1-5.49-10.69a32.77,32.77,0,0,0-8.49-11.65,18.7,18.7,0,0,0-6.66-3.45c-0.57.27-1.13,0.61-1.7,0.88,0.17,0.31.37,0.29,0.67,0h0Z" transform="translate(-162.18 -446.9)"/><path class="cls-18" d="M231.87,542.37a3.33,3.33,0,0,0,0-.73,0.9,0.9,0,0,0-.77-0.84,5.54,5.54,0,0,0,.17,3q0.39,2.36,1,4.7a17.8,17.8,0,0,0,.65,2.53c0.64,2.4,1.4,4.71,2.16,7a0.86,0.86,0,0,0,.11.39c0.42,1.22.83,2.37,1.19,3.6l1-.12c-0.35-1.23-.77-2.45-1.13-3.67-0.31-.9-0.63-1.8-0.93-2.63-0.77-2.38-1.53-4.76-2.17-7.16-0.16-.72-0.38-1.43-0.54-2.14q-0.46-2.05-.7-3.93h0Z" transform="translate(-162.18 -446.9)"/><path class="cls-18" d="M198.08,531.89a3.36,3.36,0,0,0-.4.59,20.13,20.13,0,0,0-1,1.8c-0.89,2-1.84,4-2.73,6a16.61,16.61,0,0,0-.68,1.56c-0.36.85-.79,1.71-1.15,2.56a32.16,32.16,0,0,0-1.73,3.83,62.75,62.75,0,0,0-3.83,11.66c-0.19.63-.37,1.32-0.49,1.94-0.27,1.57-.54,3.15-0.68,4.7-0.06.61-.11,1.29-0.15,2l1.05-.13a35.59,35.59,0,0,1,.65-5.5,11.69,11.69,0,0,1,.29-1.44,37.21,37.21,0,0,1,1.15-4.7,80.56,80.56,0,0,1,2.81-8l2.94-7c0.76-1.9,1.6-3.75,2.44-5.59,0.3-.77.62-1.48,0.92-2.26a14.84,14.84,0,0,1,3.75-4.82,0.4,0.4,0,0,1,.25-0.1l-1.1-.26c-0.17.22-.28,0.44-0.45,0.66a9.14,9.14,0,0,0-1,1.26l-0.22.36v-0.07a5,5,0,0,0-.68,1h0Z" transform="translate(-162.18 -446.9)"/><path class="cls-18" d="M201.37,549a9,9,0,0,0-.3-1.3,0.34,0.34,0,0,0-.38-0.35,12.33,12.33,0,0,0-.19,3.3c0,0.81-.06,1.62-0.09,2.49-0.06,1.15-.19,2.23-0.25,3.38a19.12,19.12,0,0,0-.23,1.9c-0.21,2.1-.4,4.27-0.53,6.43l-0.17,1.83,1.06-.13c0.12-2.76.31-5.53,0.57-8.24,0.11-.75.16-1.43,0.21-2.1a55.06,55.06,0,0,0,.36-5.67,13,13,0,0,0-.06-1.53h0Z" transform="translate(-162.18 -446.9)"/><path class="cls-18" d="M253.06,562.94l-1.16-2.87-1.19.15c0.57,1.33,1.08,2.74,1.6,4.22a1.07,1.07,0,0,0,.27.57,19.35,19.35,0,0,0-1.15,2l-0.06.08h-0.06a10.09,10.09,0,0,0-1.2,1.62,3.79,3.79,0,0,0-.53.54h-0.06a0.26,0.26,0,0,0-.12.15c-0.06.07-.12,0.08-0.18,0.16a9.45,9.45,0,0,0-.9.85,32.06,32.06,0,0,1-3.86,2.83h-0.07c-0.55.4-1.18,0.75-1.74,1.09-0.38.18-.76,0.36-1.07,0.54a1,1,0,0,0-.44.19,0.83,0.83,0,0,0-.39.12c-0.12-.39-0.17-0.78-0.27-1.1-0.38-1.42-.69-2.86-1.07-4.28-0.41-1.62-.8-3.18-1.2-4.8-0.11-.32-0.14-0.58-0.24-0.84-0.23-.77-0.46-1.55-0.62-2.26l-1,.12,0.34,1.16v0.07c0.13,0.45.31,0.83,0.43,1.28,0.53,2.08,1.05,4.15,1.52,6.24,0.13,0.52.2,1,.34,1.63l0.4,1.56c0.18,0.85.42,1.75,0.68,2.73,0.36,1.29.66,2.59,1,4l0,0.2,1.12-.14a0.5,0.5,0,0,1-.1-0.26,7.38,7.38,0,0,1-.21-1.18l-0.32-1c-0.24-.84-0.47-1.61-0.64-2.4a9.23,9.23,0,0,0,3.31-1.35c0.19-.09.31-0.24,0.49-0.33h0.07l1.48-1,1-.79,0.19-.09a24.46,24.46,0,0,0,2.18-1.81c0.6-.54,1.19-1.15,1.85-1.77a2.55,2.55,0,0,0,.58-1.21,16.14,16.14,0,0,0,.93-1.66,1.64,1.64,0,0,0,.36-0.85,3.34,3.34,0,0,0-.33-2.1h0Z" transform="translate(-162.18 -446.9)"/><path class="cls-18" d="M199.24,566.69l-0.07,1c-0.09,2-.1,4-0.13,5.91,0,0.74,0,1.41,0,2.14,0,1.54-.07,3.16-0.07,4.76l-0.18.16a0.35,0.35,0,0,0-.28-0.1,6.47,6.47,0,0,0-1.19.08,19.41,19.41,0,0,1-4.89-.59,14,14,0,0,1-2.11-.81l-0.21,0C190,579,189.94,579,189.81,579a4.18,4.18,0,0,1-.86-0.43,10,10,0,0,1-3.08-2.69l0-.13c0.07-.48.08-0.95,0.11-1.29a44.18,44.18,0,0,1,.24-4.52,12.19,12.19,0,0,1,.12-1.69l-1.05.13c-0.14,1.56-.22,3-0.23,4.58a5.08,5.08,0,0,0-.06,1.68,7.42,7.42,0,0,0,.29,1.24l0.35,0.16a1.26,1.26,0,0,0,.23.77,8.49,8.49,0,0,0,3.22,2.74,1.2,1.2,0,0,0,.5.27c0.42,0.15.85,0.36,1.34,0.57a3.36,3.36,0,0,0,.49.14,25.52,25.52,0,0,0,3.74,1,8.92,8.92,0,0,0,3.72-.2l0.12-.15,0,0.13c0,0.21,0,.4,0,0.74,0,0.6.09,1.26,0.12,2a1,1,0,0,0,0,.47c0,0.47.06,1,.06,1.53l1-.12c-0.08-3.34-.09-6.62,0-9.9a4.53,4.53,0,0,1,0-.94c0-2.68,0-5.29.15-7.85,0-.27,0-0.54,0-0.74l-1.06.13h0Z" transform="translate(-162.18 -446.9)"/><path class="cls-18" d="M200.13,586l-1,.12c0.07,1.13.09,2.33,0.17,3.46a12.37,12.37,0,0,0,.08,2.27,7.58,7.58,0,0,0,.22,1.71,6.6,6.6,0,0,0,4.66,6.71c0.7,0.25,1.4.49,2,.75a6.76,6.76,0,0,0,1,.34,6.62,6.62,0,0,0,1,.34,19.86,19.86,0,0,0,2.85.85c0.27,0,.54.07,0.75,0.11a24.91,24.91,0,0,0,3.93.38,19.22,19.22,0,0,0,2.08,0l0.92-.12c1.06-.07,2.12-0.2,3.25-0.27,1.51-.26,3.07-0.59,4.63-1a3,3,0,0,0,.71-0.16,0.13,0.13,0,0,1,.2,0c0.45-.12.83-0.31,1.29-0.43a33.46,33.46,0,0,0,3.6-1.19,35.73,35.73,0,0,0,3.52-1.85l0.13,0a30.24,30.24,0,0,0,4.82-3.75,21,21,0,0,0,2.07-2.74c0-.14,0-0.27.08-0.41a16,16,0,0,0,1.11-2.35l0-.13c-0.55-1.74-1-3.48-1.53-5.23-0.19-1-.37-1.83-0.54-2.68l-1.12.14a34.4,34.4,0,0,0,1.44,5.64c0.31,0.9.56,1.8,0.8,2.64-0.15.35-.25,0.7-0.4,1.05a1.53,1.53,0,0,1-.16.35,4.3,4.3,0,0,0-1.5,1.93,20.56,20.56,0,0,1-7.21,5.46l-2.4,1.11c-0.19.09-.39,0.12-0.51,0.2a37.41,37.41,0,0,1-3.59,1.25c-0.84.24-1.76,0.42-2.61,0.59a33.09,33.09,0,0,1-11.76.74,0.25,0.25,0,0,1-.21,0l-2.18-.33a30.53,30.53,0,0,1-3.82-1.13,8.32,8.32,0,0,1-6.15-4.18,3,3,0,0,0,0-1.33c-0.09-.72-0.24-1.38-0.4-2.09a5.08,5.08,0,0,1-.06-1c0-.86-0.09-1.8-0.13-2.66s-0.06-2.07-.12-3.06h0Z" transform="translate(-162.18 -446.9)"/><path class="cls-19" d="M201.53,528.91a0.4,0.4,0,0,0-.26.1,1.53,1.53,0,0,1,.52.4,9.38,9.38,0,0,1,.85.9,12.58,12.58,0,0,0,2.7,1.8c0.64,0.26,1.27.51,1.9,0.7a13.49,13.49,0,0,0,2.2.46l1.15,0.06a10.78,10.78,0,0,0,1.46-.12c0.93,0,1.79-.16,2.65-0.2h0.07a24.2,24.2,0,0,0,3-.78,18.37,18.37,0,0,1,2-.72,1.34,1.34,0,0,1,.72-0.09l0.22,0.17a0.49,0.49,0,0,1,.11.32,12.08,12.08,0,0,0,.78,3c0.4,1,.73,2.12,1.07,3.21s0.58,1.94.83,2.91a30.82,30.82,0,0,1,.83,3.38c0.15,0.65.23,1.31,0.3,1.9l0.24,1.91a7.37,7.37,0,0,1,.08,1.19l0.08,0.66,0.23,1.85,0.23,1.85c0,0.6.08,1.19,0.08,1.73l0.1,0.79,0.14,1.12c0,0.73.12,1.52,0.15,2.26l0.15,1.19a26.8,26.8,0,0,1,0,3.15c0,0.4,0,.81,0,1.21,0,0.67,0,1.34-.07,2.08-0.12,1.15-.24,2.37-0.29,3.52s-0.25,2.24-.38,3.39A13.37,13.37,0,0,1,225,576c-0.12.62-.31,1.31-0.43,1.93-0.2,1.1-.52,2.21-0.85,3.39a35,35,0,0,1-1.12,3.35c-0.37.78-.67,1.62-1,2.4a2.73,2.73,0,0,0-.37.78c-0.26.57-.46,1.13-0.73,1.7s-0.46,1.13-.66,1.69-0.66,1.15-.93,1.66-0.59,1.15-.86,1.65-0.66,1.15-.93,1.66-0.59,1.15-.92,1.72-0.86,1.18-1.26,1.7a22.24,22.24,0,0,1-1.64,1.88c-0.12.08-.24,0.23-0.36,0.31a0.25,0.25,0,0,0,.21,0,33.09,33.09,0,0,0,11.76-.74c0.85-.17,1.76-0.36,2.61-0.59a37.41,37.41,0,0,0,3.59-1.25c0.12-.08.32-0.11,0.51-0.2l2.4-1.11a20.56,20.56,0,0,0,7.21-5.46,4.3,4.3,0,0,1,1.5-1.93,1.53,1.53,0,0,0,.16-0.35c0.15-.35.25-0.7,0.4-1.05-0.24-.84-0.48-1.75-0.8-2.64a36.76,36.76,0,0,1-1.47-5.84c-0.37-1.36-.67-2.66-1-4-0.25-1-.5-1.88-0.68-2.73l-0.4-1.56c-0.14-.59-0.21-1.11-0.34-1.63-0.46-2.08-1-4.16-1.52-6.24-0.13-.45-0.31-0.83-0.43-1.28v-0.07c-0.54-1.61-1-3.16-1.53-4.76A0.86,0.86,0,0,1,235,558c-0.76-2.31-1.52-4.63-2.16-7a17.79,17.79,0,0,1-.65-2.53q-0.59-2.34-1-4.7a5.54,5.54,0,0,1-.17-3,0.9,0.9,0,0,1,.77.84,0.13,0.13,0,0,0,.08.12c1.43,2.3,2.91,4.52,4.4,6.81,1.83,2.85,3.66,5.7,5.5,8.61,2.42,3.78,4.83,7.56,7.26,11.41a2.27,2.27,0,0,0,.34.56l0.15,0.12a3.79,3.79,0,0,1,.53-0.54,10.09,10.09,0,0,1,1.2-1.62h0.06l0.06-.08a19.35,19.35,0,0,1,1.15-2,1.07,1.07,0,0,1-.27-0.57c-0.53-1.54-1.11-3-1.77-4.46-0.5-1.28-1.12-2.54-1.75-3.8a0.4,0.4,0,0,1-.1-0.26c-0.82-1.7-1.71-3.47-2.59-5.16s-1.59-3.08-2.38-4.59a55.22,55.22,0,0,0-10.94-17.3,17.59,17.59,0,0,0-5-2.92,8,8,0,0,0-2.3-.71c-0.3.3-.49,0.33-0.67,0a33.93,33.93,0,0,1-8.18,3.1c-3.07.59-4.78,0.87-5.17,0.92s-2.2.08-5.27,0.13a20.2,20.2,0,0,1-4.68-.48h0Z" transform="translate(-162.18 -446.9)"/><path class="cls-20" d="M201.79,529.41a1.53,1.53,0,0,0-.52-0.4,14.85,14.85,0,0,0-3.75,4.82c-0.3.77-.62,1.48-0.92,2.26-0.84,1.85-1.68,3.69-2.44,5.59l-2.94,7a80.56,80.56,0,0,0-2.81,8,37.26,37.26,0,0,0-1.15,4.7,11.69,11.69,0,0,0-.29,1.44,47.5,47.5,0,0,0-.77,7.19,44.18,44.18,0,0,0-.24,4.52c0,0.34,0,.81-0.11,1.29,0.24,0.31.49,0.68,0.72,1a1.39,1.39,0,0,0,.71.31,1.36,1.36,0,0,0,1-.32,5.52,5.52,0,0,0,1.36-1.44c0.7-.82,1.32-1.71,1.89-2.51,0.34-.51.67-1.09,1-1.6a25.84,25.84,0,0,0,1.64-3,28,28,0,0,0,1.25-2.83c0.36-.85.72-1.7,1.08-2.61s0.66-1.69,1-2.47,0.67-1.62,1-2.47a9.82,9.82,0,0,0,.42-0.92,11.52,11.52,0,0,1,.58-1.28c0.19-.63.38-1.25,0.63-1.89a2.72,2.72,0,0,0,.26-0.63c0-.87.06-1.68,0.09-2.49a12.33,12.33,0,0,1,.19-3.3,0.34,0.34,0,0,1,.38.35,9,9,0,0,1,.3,1.3,13,13,0,0,1,.06,1.53,55.37,55.37,0,0,1-.36,5.67c0,0.68-.1,1.35-0.21,2.1-0.23,3-.46,5.95-0.61,9-0.15,2.56-.15,5.17-0.15,7.85a4.53,4.53,0,0,0,0,.94c-0.06,4.29,0,8.63.16,13,0,0.87.09,1.8,0.13,2.66a5.08,5.08,0,0,0,.06,1c0.16,0.72.31,1.37,0.4,2.09a3,3,0,0,1,0,1.33,8.32,8.32,0,0,0,6.15,4.18,30.53,30.53,0,0,0,3.82,1.13l2.18,0.33c0.12-.08.24-0.23,0.36-0.31a22.24,22.24,0,0,0,1.64-1.88c0.4-.52.86-1.11,1.26-1.7s0.66-1.15.92-1.72,0.6-1.08.93-1.66,0.6-1.08.86-1.65,0.6-1.08.93-1.66,0.39-1.12.66-1.69,0.46-1.13.73-1.7a2.73,2.73,0,0,1,.37-0.78c0.3-.77.6-1.62,1-2.4a35,35,0,0,0,1.12-3.35c0.32-1.18.65-2.29,0.85-3.39,0.12-.62.3-1.31,0.43-1.93a13.37,13.37,0,0,0,.24-1.77c0.12-1.15.25-2.24,0.38-3.39s0.17-2.36.29-3.52c0-.74.09-1.42,0.07-2.08,0-.4,0-0.81,0-1.21a26.8,26.8,0,0,0,0-3.15l-0.15-1.19c0-.73-0.13-1.52-0.15-2.26l-0.14-1.12-0.1-.79c0-.54-0.08-1.13-0.08-1.73l-0.23-1.85L225,550.06l-0.08-.66a7.37,7.37,0,0,0-.08-1.19l-0.24-1.91c-0.07-.59-0.16-1.25-0.3-1.9a30.82,30.82,0,0,0-.83-3.38c-0.26-1-.51-1.94-0.83-2.91s-0.68-2.19-1.07-3.21a12.08,12.08,0,0,1-.78-3,0.49,0.49,0,0,0-.11-0.32l-0.22-.17a1.34,1.34,0,0,0-.72.09,18.37,18.37,0,0,0-2,.72,24.2,24.2,0,0,1-3,.78h-0.07c-0.87,0-1.72.15-2.65,0.2a10.77,10.77,0,0,1-1.46.12l-1.15-.06a13.49,13.49,0,0,1-2.2-.46c-0.63-.19-1.26-0.44-1.9-0.7a12.58,12.58,0,0,1-2.7-1.8,9.38,9.38,0,0,0-.85-0.9h0Z" transform="translate(-162.18 -446.9)"/><path class="cls-19" d="M200.16,553.78c-0.25.63-.44,1.26-0.63,1.89a11.52,11.52,0,0,0-.58,1.28,9.82,9.82,0,0,1-.42.92c-0.36.85-.66,1.69-1,2.47s-0.67,1.62-1,2.47-0.71,1.76-1.08,2.61a28,28,0,0,1-1.25,2.83,25.84,25.84,0,0,1-1.64,3c-0.34.51-.67,1.09-1,1.6-0.57.81-1.19,1.69-1.89,2.51a5.53,5.53,0,0,1-1.36,1.44,1.37,1.37,0,0,1-1,.32,1.39,1.39,0,0,1-.71-0.31c-0.24-.31-0.49-0.68-0.72-1l0,0.13a10,10,0,0,0,3.08,2.69,4.18,4.18,0,0,0,.86.43c0.12-.08.2,0,0.29,0.16l0.21,0a14,14,0,0,0,2.11.81,19.41,19.41,0,0,0,4.89.59,6.47,6.47,0,0,1,1.19-.08,0.35,0.35,0,0,1,.28.1l0.18-.16c0-1.61.06-3.22,0.07-4.76,0-.73,0-1.4,0-2.14,0-1.94,0-4,.13-5.91q0.11-1.52.25-2.84c0.13-2.16.33-4.33,0.53-6.43a19.12,19.12,0,0,1,.23-1.9c0.06-1.15.19-2.23,0.25-3.38a2.72,2.72,0,0,1-.26.63h0Z" transform="translate(-162.18 -446.9)"/><path class="cls-4" d="M245.71,506l-2,.45-0.26,0a28.21,28.21,0,0,1-1.25,2.83,3.15,3.15,0,0,1,1.14-.54,5.69,5.69,0,0,0,1.09-.41,7.12,7.12,0,0,0,1.21-.49,3.92,3.92,0,0,0,2-1.66,5.72,5.72,0,0,0,.77-1.3c0.15-.42.36-0.85,0.52-1.2v-0.07l-0.89.91-1,.79-0.13,0-0.12.08-1.14.55h0Z" transform="translate(-162.18 -446.9)"/><path class="cls-4" d="M242.2,509.48v-0.07a30.75,30.75,0,0,1-9.36,11.28,5.37,5.37,0,0,0,2.71-.27,6.19,6.19,0,0,0,3.61-3.2,2.22,2.22,0,0,0,.21-1,0.43,0.43,0,0,0,0-.4,4.3,4.3,0,0,0,1.74-1.09,3.53,3.53,0,0,0,1.21-1.56,8,8,0,0,0,.46-2.2,1.67,1.67,0,0,0-.37-1.36c-0.07-.06-0.08-0.12-0.16-0.18h0Z" transform="translate(-162.18 -446.9)"/><path class="cls-1" d="M227.84,523.66c-0.06,0-.06,0-0.06.07a4.28,4.28,0,0,0,2.57-.86,6.56,6.56,0,0,0,1.25-1.23l0.12-.15-1.19.68-0.38.18c-0.82.44-1.57,0.87-2.32,1.29h0Z" transform="translate(-162.18 -446.9)"/><path class="cls-20" d="M231.84,541.64a3.33,3.33,0,0,1,0,.73q0.24,1.88.7,3.93c0.16,0.72.38,1.43,0.54,2.14,0.64,2.4,1.4,4.78,2.17,7.16,0.31,0.83.62,1.73,0.93,2.63,0.58,1.94,1.16,3.94,1.75,5.94,0.1,0.26.13,0.52,0.24,0.84,0.4,1.62.8,3.18,1.2,4.8,0.38,1.43.69,2.86,1.07,4.28,0.11,0.32.16,0.72,0.27,1.1a0.83,0.83,0,0,1,.39-0.12,1,1,0,0,1,.44-0.19c0.31-.17.69-0.35,1.07-0.54,0.56-.34,1.19-0.69,1.74-1.09h0.07a32.06,32.06,0,0,0,3.86-2.83,9.45,9.45,0,0,1,.9-0.85c0.06-.07.12-0.08,0.18-0.16a0.26,0.26,0,0,1,.12-0.15h0.06l-0.15-.12a2.27,2.27,0,0,1-.34-0.56c-2.43-3.85-4.84-7.63-7.26-11.41-1.84-2.92-3.67-5.76-5.5-8.61-1.49-2.29-3-4.51-4.4-6.81a0.13,0.13,0,0,1-.08-0.12h0Z" transform="translate(-162.18 -446.9)"/><path class="cls-21" d="M239.09,604.12c-0.06.07-.12,0.08-0.18,0.16a1.67,1.67,0,0,1-.38-0.89,6.64,6.64,0,0,1-.42-0.68,11.49,11.49,0,0,1-1.78-3.52,4.15,4.15,0,0,1-.21-1.18,35.73,35.73,0,0,1-3.52,1.85A33.46,33.46,0,0,1,229,601c-0.45.12-.83,0.31-1.29,0.43a0.13,0.13,0,0,0-.2,0,1,1,0,0,1,.23.24c0.09,0.19.11,0.32,0.2,0.51a12.34,12.34,0,0,1,.64,1.39,3.38,3.38,0,0,0,2.24.25,7.16,7.16,0,0,0,1.18-.22,3,3,0,0,0,1-.33,2.82,2.82,0,0,0,.63-0.35,0.4,0.4,0,0,0,.25-0.1,2.33,2.33,0,0,1,.87-0.51c0.07,0,.08.06,0.16,0.18,0.11,0.32.29,0.7,0.4,1l0.27,0.57c0.18,0.38.36,0.76,0.62,1.19a13.2,13.2,0,0,0,.89,1.23c0.57,0.8,1.13,1.53,1.69,2.26h0.06c0.07,0.06.16,0.18,0.23,0.24a0.49,0.49,0,0,1,.1-0.28,8.94,8.94,0,0,0,0-4,2.93,2.93,0,0,0-.16-0.72h0Z" transform="translate(-162.18 -446.9)"/><path class="cls-22" d="M238.91,604.28c0.06-.07.13-0.08,0.18-0.16a2.93,2.93,0,0,1,.16.72,8.94,8.94,0,0,1,0,4,0.49,0.49,0,0,0-.1.28,5.77,5.77,0,0,1-4.24,3.54,4.8,4.8,0,0,1-4.72-3.42,1.28,1.28,0,0,1-.12-0.45,0.41,0.41,0,0,1-.1-0.26,1,1,0,0,0-.23-0.24c-0.15-.65-0.23-1.31-0.38-2a1.29,1.29,0,0,1-.12-0.45,13.1,13.1,0,0,0-.61-2.2,12.34,12.34,0,0,0-.64-1.39c-0.09-.19-0.11-0.32-0.2-0.51a1,1,0,0,0-.23-0.24,3,3,0,0,1-.71.16l0.32,1a3.06,3.06,0,0,1,.26.44,0.13,0.13,0,0,0,.08.12,23.17,23.17,0,0,1,.78,3,0.24,0.24,0,0,0,.09.19c0.16,0.72.25,1.44,0.4,2.16l0,0.2a1.78,1.78,0,0,1,.14.58c0.44,1.89.87,3.71,1.36,5.52a10.92,10.92,0,0,0,2.21,4.27,16.78,16.78,0,0,0,2.79,3,4.38,4.38,0,0,0,.89.69,7,7,0,0,0,3.75,1.6,6.6,6.6,0,0,0,3.77-.88,9.16,9.16,0,0,0,2.72-3.42,8.76,8.76,0,0,0-.37-7.72c-0.61-1.13-1.28-2.18-1.95-3.24-0.9-1.29-1.8-2.59-2.83-3.86a26.6,26.6,0,0,1-2.18-2.94,10.06,10.06,0,0,1-.91-1.36c-0.77-1.31-1.28-2.18-1.51-2.49s-0.33-.49-0.41-0.55l-0.13,0a4.15,4.15,0,0,0,.21,1.18,11.49,11.49,0,0,0,1.78,3.52,6.64,6.64,0,0,0,.42.68,1.67,1.67,0,0,0,.38.89h0Zm1.29,4.93a1.91,1.91,0,0,1,.09-0.35,6.77,6.77,0,0,0,.2-2.7,29.22,29.22,0,0,1,2.17,2.87,10.46,10.46,0,0,1,.68,1.12,33.7,33.7,0,0,1,1.61,3.21c0.31,0.83.62,1.73,0.86,2.57a8.19,8.19,0,0,1-1.57,5.62,2.2,2.2,0,0,0-.66.62,4.52,4.52,0,0,1-2.74,1.08A6,6,0,0,1,239,623a13.7,13.7,0,0,1-2.66-1.47,13.18,13.18,0,0,1-4.9-6.48,27,27,0,0,1-1-3.89c0.08,0.12.1,0.26,0.18,0.38,3.11,2.89,6.08,2.58,8.86-.91a2.77,2.77,0,0,1,.34-0.51,10.09,10.09,0,0,1,.42-0.92h0Z" transform="translate(-162.18 -446.9)"/><path class="cls-23" d="M240.28,608.86a1.91,1.91,0,0,0-.09.35,10.09,10.09,0,0,0-.42.92c0.53,1,1.06,2,1.59,3.08a15.7,15.7,0,0,1,1,3.42l0,0.4a17.06,17.06,0,0,1,0,1.81,11.93,11.93,0,0,1-1,3.41c-0.16.35-.39,0.65-0.54,1a4.52,4.52,0,0,0,2.74-1.08,2.2,2.2,0,0,1,.66-0.62,8.19,8.19,0,0,0,1.57-5.62c-0.24-.84-0.55-1.74-0.86-2.57a33.7,33.7,0,0,0-1.61-3.21,10.46,10.46,0,0,0-.68-1.12,29.22,29.22,0,0,0-2.17-2.87,6.77,6.77,0,0,1-.2,2.7h0Z" transform="translate(-162.18 -446.9)"/><path class="cls-24" d="M230.58,611.55c-0.08-.12-0.1-0.25-0.18-0.38a27,27,0,0,0,1,3.89,13.18,13.18,0,0,0,4.9,6.48A13.7,13.7,0,0,0,239,623a6,6,0,0,0,1.84.24c0.16-.35.39-0.65,0.54-1a11.93,11.93,0,0,0,1-3.41,17.06,17.06,0,0,0,0-1.81l0-.4a15.69,15.69,0,0,0-1-3.42c-0.53-1.07-1.06-2.08-1.59-3.08a2.77,2.77,0,0,0-.34.51c-2.77,3.49-5.75,3.8-8.86.91h0Z" transform="translate(-162.18 -446.9)"/><path class="cls-25" d="M234.78,602.39a2.33,2.33,0,0,0-.87.51,0.4,0.4,0,0,1-.25.1,2.82,2.82,0,0,1-.63.35,3,3,0,0,1-1,.33,7.16,7.16,0,0,1-1.18.22,3.38,3.38,0,0,1-2.24-.25,13.1,13.1,0,0,1,.61,2.2,1.29,1.29,0,0,0,.12.45c0.15,0.65.23,1.31,0.38,2a1,1,0,0,1,.23.24,0.41,0.41,0,0,0,.1.26,1.28,1.28,0,0,0,.12.45,4.8,4.8,0,0,0,4.72,3.42,5.77,5.77,0,0,0,4.24-3.54c-0.08-.06-0.16-0.18-0.23-0.24h-0.06c-0.56-.73-1.12-1.47-1.69-2.26a13.2,13.2,0,0,1-.89-1.23c-0.25-.44-0.44-0.82-0.62-1.19l-0.27-.57c-0.11-.32-0.29-0.7-0.4-1-0.08-.12-0.09-0.19-0.16-0.18h0Z" transform="translate(-162.18 -446.9)"/><path class="cls-26" d="M199,582.12c0-.34,0-0.54,0-0.74l-0.13,0a8.92,8.92,0,0,1-3.72.2,25.52,25.52,0,0,1-3.74-1,3.36,3.36,0,0,1-.49-0.14,1,1,0,0,0,.18.38,18.61,18.61,0,0,0,3.29,4.88c1.95,1.63,3.44,1.24,4.42-1.09l0.27-.5c0-.73-0.11-1.39-0.12-2h0Z" transform="translate(-162.18 -446.9)"/><path class="cls-27" d="M199.14,586.11c0-.54-0.07-1.06-0.06-1.53l-0.26,0c-1,2.33-2.47,2.72-4.42,1.09a18.61,18.61,0,0,1-3.29-4.88,1,1,0,0,1-.18-0.38c-0.49-.21-0.92-0.42-1.34-0.57a3.55,3.55,0,0,0,.55,1.2c0.07,0.06.09,0.19,0.16,0.25a17.69,17.69,0,0,0,3.45,5.06q2.83,2.56,5.39-.27h0Z" transform="translate(-162.18 -446.9)"/><path class="cls-22" d="M198.81,584.61l0.26,0a1,1,0,0,1,0-.47l-0.27.5h0Z" transform="translate(-162.18 -446.9)"/><path class="cls-22" d="M218.87,605.73q0-.9,0-1.8l0.07-1L218,603a11.54,11.54,0,0,0,0,2.61,1,1,0,0,0,0,.47,3.51,3.51,0,0,0,0,.86c0,0.73.12,1.52,0.15,2.26a1,1,0,0,0,0,.47l0.11,0.86a1.44,1.44,0,0,0,0,.53c-0.29.37-.58,0.68-0.76,0.9s-0.11.21-.16,0.29a11.15,11.15,0,0,1-3.59,2.86,9,9,0,0,1-3.46.7,4.75,4.75,0,0,1-1.81-2.72c-0.09-.19-0.12-0.45-0.22-0.71a5.35,5.35,0,0,1,0-2,2.51,2.51,0,0,0,0-.73c-0.07-.59-0.21-1.18-0.37-1.89q0.21-.73.39-1.66a14.55,14.55,0,0,0,.26-1.64,0.13,0.13,0,0,1,0-.14,2.39,2.39,0,0,1,0-.74,0.12,0.12,0,0,1,0-.2,12.81,12.81,0,0,0-.15-1.72,6.62,6.62,0,0,1-1-.34,7.59,7.59,0,0,0,.22,1.24,0.24,0.24,0,0,0,.09.19l-0.1.82a0.84,0.84,0,0,1,0,.4,1,1,0,0,0,0,.47,24.36,24.36,0,0,1-1.27,5.38,20.46,20.46,0,0,1-1.71,3.43c-0.06.07-.11,0.21-0.16,0.29s-0.07,0-.06.07a9.35,9.35,0,0,0-.6,1.08,33.36,33.36,0,0,0-2,4.47,9.93,9.93,0,0,0,.43,8.25,9.74,9.74,0,0,0,2.56,2.76,7.45,7.45,0,0,0,2,.82,9.33,9.33,0,0,0,3.16.14,3.24,3.24,0,0,0,1.45-.72h0.07a8.36,8.36,0,0,0,1.6-1.14c0.18-.16.36-0.31,0.6-0.54a1.77,1.77,0,0,1,.35-0.38,15.68,15.68,0,0,0,4.63-10c0.1-1.35.2-2.7,0.36-4.06,0-.8,0-1.61,0-2.48a0.49,0.49,0,0,1,0-.34,0.84,0.84,0,0,0,0-.4l0-.26a0.49,0.49,0,0,1,0-.34,5,5,0,0,1-.06-1,0.73,0.73,0,0,1,0-.34c-0.08-1.13-.08-2.27-0.09-3.4h0Zm-1.1,7.77,0.52-.67-0.2,3.24c-0.09.88-.25,1.71-0.41,2.6a23,23,0,0,1-1.78,5,23.79,23.79,0,0,1-2.18,3.42c-0.65.68-1.23,1.36-1.89,2a2.69,2.69,0,0,0-.55.4l-0.13,0c-0.63.28-1.14,0.55-1.52,0.73a6.65,6.65,0,0,1-3.25-.26,6.47,6.47,0,0,1-2.43-1.77h-0.07a10.83,10.83,0,0,1-.92-1.42,19,19,0,0,1,1.82-13.22,0.66,0.66,0,0,1,.22-0.36,14.47,14.47,0,0,1,1.9-3,3.19,3.19,0,0,1,.14-0.49c0.06-.07,0-0.14.11-0.21l0,0.2c0,0.73.12,1.46,0.22,2.25a1.84,1.84,0,0,0,0,.6,2.28,2.28,0,0,0,0,.67,4.46,4.46,0,0,0,2.51,3.5,9.7,9.7,0,0,0,7.83-3.26h0Z" transform="translate(-162.18 -446.9)"/><path class="cls-23" d="M218.29,612.83l-0.52.67a10.46,10.46,0,0,1-4.33,2.82,0.24,0.24,0,0,0,0,.21,20.18,20.18,0,0,1-4.35,8,22,22,0,0,1-3.49,3.12,4.55,4.55,0,0,1-1.54.53l-0.06.07a6.47,6.47,0,0,0,2.43,1.77,6.65,6.65,0,0,0,3.25.26c0.38-.18.88-0.44,1.52-0.73l0.13,0a2.66,2.66,0,0,1,.55-0.4c0.66-.62,1.24-1.29,1.89-2a23.79,23.79,0,0,0,2.18-3.42,23,23,0,0,0,1.78-5c0.16-.89.32-1.71,0.41-2.6l0.2-3.24h0Z" transform="translate(-162.18 -446.9)"/><path class="cls-24" d="M205,613.22a0.66,0.66,0,0,0-.22.36A19,19,0,0,0,203,626.8a10.83,10.83,0,0,0,.92,1.42H204l0.06-.07a4.55,4.55,0,0,0,1.54-.53A22,22,0,0,0,209,624.5a20.18,20.18,0,0,0,4.35-8,0.24,0.24,0,0,1,0-.21,10.46,10.46,0,0,1-3.49.44,4.46,4.46,0,0,1-2.51-3.5,2.28,2.28,0,0,1,0-.67,1.84,1.84,0,0,1,0-.6c-0.1-.79-0.19-1.52-0.22-2.25l0-.2c-0.06.07,0,.14-0.11,0.21a3.19,3.19,0,0,0-.14.49,14.47,14.47,0,0,0-1.9,3h0Z" transform="translate(-162.18 -446.9)"/><path class="cls-21" d="M218,605.64a11.54,11.54,0,0,1,0-2.61,19.22,19.22,0,0,1-2.08,0,24.91,24.91,0,0,1-3.93-.38l-1.11.74a7.94,7.94,0,0,1-2.36,1,0.13,0.13,0,0,0,0,.14l0.22,0.17a4.36,4.36,0,0,0,1.14,1.06,4.67,4.67,0,0,0,2.89,1.18,5.61,5.61,0,0,0,2.78-.22l0.46-.06c0.06-.07.12-0.08,0.18-0.16a2.33,2.33,0,0,0-.19.63c-0.24.77-.49,1.47-0.72,2.23a3.37,3.37,0,0,0-.14.49,5.14,5.14,0,0,1-.21,1,1.47,1.47,0,0,0-.16.35,3.3,3.3,0,0,1-.14.49c-0.23.83-.39,1.66-0.62,2.49a5.77,5.77,0,0,0-.21,1,11.15,11.15,0,0,0,3.59-2.86c0.06-.07.11-0.21,0.16-0.29s0.47-.53.76-0.9a1.44,1.44,0,0,1,0-.53l-0.11-.86a1,1,0,0,1,0-.47c0-.73-0.12-1.52-0.15-2.26a3.51,3.51,0,0,1,0-.86,1,1,0,0,1,0-.47h0Z" transform="translate(-162.18 -446.9)"/><path class="cls-25" d="M216.15,606.47c-0.06.07-.12,0.08-0.18,0.16l-0.46.06a5.61,5.61,0,0,1-2.78.22,4.67,4.67,0,0,1-2.89-1.18,4.36,4.36,0,0,1-1.14-1.06l-0.22-.17a14.55,14.55,0,0,1-.26,1.64q-0.18.93-.39,1.66c0.16,0.72.3,1.3,0.37,1.89a2.51,2.51,0,0,1,0,.73,5.35,5.35,0,0,0,0,2c0.1,0.26.13,0.52,0.22,0.71a4.74,4.74,0,0,0,1.81,2.72,9,9,0,0,0,3.46-.7,5.77,5.77,0,0,1,.21-1c0.23-.83.39-1.66,0.62-2.49a3.3,3.3,0,0,0,.14-0.49,1.47,1.47,0,0,1,.16-0.35,5.12,5.12,0,0,0,.21-1,3.4,3.4,0,0,1,.14-0.49c0.24-.77.49-1.47,0.72-2.23a2.33,2.33,0,0,1,.19-0.63h0Z" transform="translate(-162.18 -446.9)"/><path class="cls-25" d="M208.39,601.69a12.81,12.81,0,0,1,.15,1.72,0.12,0.12,0,0,0,0,.2,2.39,2.39,0,0,0,0,.74,7.94,7.94,0,0,0,2.36-1l1.11-.74c-0.21,0-.48-0.07-0.75-0.11a19.86,19.86,0,0,1-2.85-.85h0Z" transform="translate(-162.18 -446.9)"/><path class="cls-28" d="M169.93,587.93q0.26-3.82.34-6.21,0.11-3.25.14-8.13l0-7.06q0-4.79-.07-9.17-0.09-5.24-.29-10.08,4.17-.11,6.25-0.19,2.41-.1,5.71-0.29-0.37,7.82-.47,19.4t0.29,21.25q-3.45.08-5.82,0.18Q173.32,587.73,169.93,587.93Zm12.42-17.61,4.81-7.57,3.6-6.06q4.1-.11,6.22-0.19,2.91-.12,6.89-0.34l-5.6,7.93q-2,2.73-4,5.87,2.24,3.75,10.7,16.55-3.48.08-6.27,0.19t-6.54.32l-2-3.65q-1.06-1.89-1.83-3.17-0.29-.52-4.37-7.12Z" transform="translate(-162.18 -446.9)"/><path class="cls-28" d="M207.86,586.39q0.27-3.64.38-6t0.16-6q0-3.66,0-8.1T208.23,556q3.87-.1,6.19-0.19,2.11-.09,6.07-0.31-0.28,5.64-.34,9.9t0.08,9q0.22,8.45.34,11.48-3.54.08-6.09,0.19T207.86,586.39Zm0.49-34.23q0-3.55,0-5.6,0-.6-0.09-1.6,3.6-.09,6-0.18,3.36-.14,5.88-0.3-0.05.92-.06,1.55l0,3.69q0,0.83,0,2-2.95.06-5.65,0.17T208.35,552.16Z" transform="translate(-162.18 -446.9)"/><path class="cls-28" d="M261.78,584.46q-3.19.07-5.3,0.15-2.38.1-5.77,0.29l0-3.78q-1.11,1.18-1.95,1.91a11.48,11.48,0,0,1-2.16,1.44,13.69,13.69,0,0,1-2.87,1.13,14.43,14.43,0,0,1-3.21.49,13.66,13.66,0,0,1-5.38-.82,11.88,11.88,0,0,1-4.35-2.79A12.33,12.33,0,0,1,228,578a17.42,17.42,0,0,1-1.08-5.42,20.46,20.46,0,0,1,1.26-7.91,15.7,15.7,0,0,1,3.88-6.2,14.89,14.89,0,0,1,5.62-3.34,25.32,25.32,0,0,1,6.88-1.19,43.86,43.86,0,0,1,5.79.21q0.09-3.55-.08-9.91,3.65-.09,6-0.18,3-.12,6.06-0.3-0.5,8.86-.64,21.61T261.78,584.46Zm-11.52-22.52a13.55,13.55,0,0,0-3-.24A10.08,10.08,0,0,0,242.4,563a7.31,7.31,0,0,0-3,3.61,11.07,11.07,0,0,0-.9,4.7,7.59,7.59,0,0,0,.74,3.08,4.84,4.84,0,0,0,2,2.11,5.16,5.16,0,0,0,2.85.69,5.22,5.22,0,0,0,3-1,6.59,6.59,0,0,0,2.1-2.79,13.93,13.93,0,0,0,1-4.28Q250.33,566.61,250.26,561.94Z" transform="translate(-162.18 -446.9)"/><path class="cls-28" d="M267,584q0.27-3.64.38-6t0.16-6q0-3.66,0-8.1t-0.18-10.29q3.87-.1,6.19-0.19,2.11-.09,6.07-0.31-0.28,5.64-.34,9.9t0.08,9q0.22,8.45.34,11.48-3.54.08-6.09,0.19T267,584Zm0.49-34.23q0-3.55,0-5.6,0-.6-0.09-1.6,3.6-.09,6-0.18,3.36-.14,5.88-0.3-0.05.92-.06,1.55l0,3.69q0,0.83,0,2-2.95.06-5.65,0.17T267.51,549.77Z" transform="translate(-162.18 -446.9)"/><path class="cls-29" d="M290.7,580.16q1.67-11.42,2.71-25.25t1.43-26.19q6.06,0.22,10.45.3,5.1,0.1,9.8.09L314.46,536a37.91,37.91,0,0,1,2.93-2.89,17.88,17.88,0,0,1,3-2.06,19.74,19.74,0,0,1,3.84-1.62,28.63,28.63,0,0,1,4.43-.95,32.83,32.83,0,0,1,12.1.64,18.72,18.72,0,0,1,5.73,2.33,13.64,13.64,0,0,1,3.82,3.65,11.77,11.77,0,0,1,2,4.66,25.47,25.47,0,0,1,.41,5.1q0,1.92-.57,8.26l-1.22,18.24q-0.36,5.39-.45,10-5.09-.2-9.52-0.28-6-.12-10.94-0.11,0.55-4.58,1.23-13.63T332,554.56q0.11-5.7-2-8a7.42,7.42,0,0,0-5.49-2.35,9.15,9.15,0,0,0-5.57,1.81,12.14,12.14,0,0,0-4.12,5.5q-1.48,3.63-2.22,12t-1.11,17q-5-.2-9.83-0.29Q296.6,580.17,290.7,580.16Z" transform="translate(-162.18 -446.9)"/><path class="cls-29" d="M407.91,572.25q-0.92,3-3.81,14.35-5.93.64-9.94,0.66t-8.07-.34a68,68,0,0,1-10.93-1.81,25.59,25.59,0,0,1-8.41-3.71,21.15,21.15,0,0,1-5.64-5.79,22.25,22.25,0,0,1-3.08-7.79,31.26,31.26,0,0,1-.49-9,32.53,32.53,0,0,1,3.69-12.35,25.15,25.15,0,0,1,7.47-9,24,24,0,0,1,9.76-4.09,40.52,40.52,0,0,1,10.93-.49,44.13,44.13,0,0,1,10.81,2.31,20.33,20.33,0,0,1,8.4,5.44,19.09,19.09,0,0,1,4.48,7.95,26,26,0,0,1,.73,9.13,35.44,35.44,0,0,1-1.22,6.32l-35.23-3.09c-0.08.53-.14,1-0.18,1.45q-0.48,5.4,3.16,8.3a16.85,16.85,0,0,0,9.22,3.4,42.7,42.7,0,0,0,7.63-.1A103.43,103.43,0,0,0,407.91,572.25Zm-29.45-19L395,554.74q0.13-.85.18-1.45a9.94,9.94,0,0,0-.53-4.56,5.84,5.84,0,0,0-2.42-3,8.73,8.73,0,0,0-3.82-1.2,9.08,9.08,0,0,0-3,.22,8.07,8.07,0,0,0-2.66,1.18,8.78,8.78,0,0,0-2.08,2,10.08,10.08,0,0,0-1.31,2.24A26.5,26.5,0,0,0,378.45,553.26Z" transform="translate(-162.18 -446.9)"/><path class="cls-29" d="M453.59,580.77q-1.55,4-2.82,7.94l-2,5.91a76.58,76.58,0,0,1-7.92.2,50.54,50.54,0,0,1-5.41-.53,35.61,35.61,0,0,1-7.42-1.89,12.25,12.25,0,0,1-5.07-3.49,9.91,9.91,0,0,1-2.31-4.88,17.46,17.46,0,0,1,0-5.41c0.05-.33.16-0.92,0.32-1.76s0.57-2.71,1.23-5.61L426,554.16,418.19,553q0.78-3.4,1.86-9l0.87-4.61,8.26,1.28q0.65-2.25,2.3-9.9l8.8-.42q2.41-.08,10.34-0.74-1.37,6.48-2.68,14l11.37,1.77q-2,10.31-2.53,13.65l-11.47-1.78-2.54,12.37q-0.53,2.78-.66,3.57a13.12,13.12,0,0,0-.09,4.07,3.85,3.85,0,0,0,1.49,2.58,6.21,6.21,0,0,0,2.81,1.15,18.84,18.84,0,0,0,2.52.21A42.31,42.31,0,0,0,453.59,580.77Z" transform="translate(-162.18 -446.9)"/><path class="cls-27" d="M246.32,573.23a2,2,0,0,0-.06.54,6,6,0,0,1-.21,1,10.92,10.92,0,0,1-2.19,4.43,1.63,1.63,0,0,1-1.44.25,1.08,1.08,0,0,0-.49-0.21,7.38,7.38,0,0,0,.21,1.18,3.27,3.27,0,0,0,1.23.18,7.73,7.73,0,0,0,3.71-5.62c0-.27.13-0.55,0.16-0.82a13.79,13.79,0,0,0,0-1.75l-1,.79h0Z" transform="translate(-162.18 -446.9)"/><path class="cls-26" d="M241,575.91c0.17,0.78.4,1.56,0.64,2.4l0.32,1a1.08,1.08,0,0,1,.49.21,1.63,1.63,0,0,0,1.44-.25A10.92,10.92,0,0,0,246,574.8a6,6,0,0,0,.21-1,2,2,0,0,1,.06-0.54l-1.48,1h-0.07c-0.19.09-.31,0.24-0.49,0.33a9.23,9.23,0,0,1-3.31,1.35h0Z" transform="translate(-162.18 -446.9)"/></svg>